<svg width="198" height="36" viewBox="0 0 198 36" fill="none" xmlns="http://www.w3.org/2000/svg">
<path fill-rule="evenodd" clip-rule="evenodd" d="M35.3388 0V1.54865L36.5852 1.54865V0H44.6867H55.8661C58.2965 0 60.2667 2.01437 60.2667 4.49922C60.2667 6.9539 58.229 8.86179 56.1284 10.0504C53.3936 11.598 51.5419 14.5779 51.5419 18C51.5419 21.4221 53.3936 24.402 56.1284 25.9496C58.229 27.1382 60.2667 29.0461 60.2667 31.5008C60.2667 33.9856 58.2965 36 55.8661 36H44.6867H36.5852V34.4513H35.3388V36H30.8206H29.7127H27.0642H4.66724C2.23687 36 0.266663 33.9856 0.266663 31.5008C0.266663 29.0461 2.30431 27.1382 4.40491 25.9496C7.13976 24.402 8.99143 21.4221 8.99143 18C8.99143 14.5779 7.13975 11.598 4.40491 10.0504C2.30431 8.86179 0.266663 6.9539 0.266663 4.49922C0.266663 2.01437 2.23687 0 4.66724 0H27.0642H29.7127H30.8206H35.3388ZM35.3388 4.07962V6.61059H36.5852V4.07962H35.3388ZM35.3388 9.14157V11.6725H36.5852V9.14157H35.3388ZM35.3388 14.2035V16.7345H36.5852V14.2035H35.3388ZM35.3388 19.2655V21.7964H36.5852V19.2655H35.3388ZM35.3388 24.3274V26.8584H36.5852V24.3274H35.3388ZM35.3388 29.3893V31.9203H36.5852V29.3893H35.3388Z" fill="#3567E9"/>
<path fill-rule="evenodd" clip-rule="evenodd" d="M118.994 8.25294V28.4064H124.471V8.25294H118.994ZM119.65 4.82843C120.233 5.3795 120.931 5.65503 121.745 5.65503C122.559 5.65503 123.254 5.3795 123.828 4.82843C124.411 4.26861 124.702 3.59945 124.702 2.82096C124.702 2.05121 124.411 1.3908 123.828 0.839728C123.254 0.27991 122.559 0 121.745 0C120.931 0 120.233 0.27991 119.65 0.839728C119.076 1.3908 118.788 2.05121 118.788 2.82096C118.788 3.59945 119.076 4.26861 119.65 4.82843ZM116.875 8.25294V12.4516H113.16V22.2134C113.16 22.7295 113.237 23.1318 113.391 23.4205C113.545 23.7004 113.76 23.8972 114.034 24.0109C114.317 24.1246 114.642 24.1815 115.011 24.1815C115.268 24.1815 115.525 24.1596 115.782 24.1159C116.039 24.0634 116.236 24.0241 116.373 23.9978L117.235 28.1571C116.961 28.2446 116.575 28.3451 116.078 28.4589C115.581 28.5813 114.977 28.6557 114.265 28.6819C112.945 28.7344 111.788 28.5551 110.794 28.144C109.809 27.7328 109.042 27.0943 108.493 26.2283C107.945 25.3624 107.675 24.269 107.683 22.9482V12.4516H104.984V8.25294H107.683V3.42451H113.16V8.25294H116.875ZM74.4175 27.5404C75.883 28.3801 77.6313 28.8 79.6624 28.8C81.2908 28.8 82.7263 28.5463 83.9689 28.039C85.2202 27.5229 86.24 26.8056 87.0285 25.8872C87.8255 24.96 88.3526 23.8754 88.6097 22.6333L83.5447 22.2921C83.3562 22.7995 83.0819 23.2281 82.722 23.5779C82.362 23.9278 81.9292 24.1902 81.4236 24.3652C80.918 24.5401 80.3609 24.6276 79.7524 24.6276C78.8354 24.6276 78.0427 24.4308 77.3742 24.0372C76.7057 23.6436 76.1872 23.0837 75.8187 22.3577C75.4587 21.6317 75.2788 20.7701 75.2788 19.7729V19.7598H88.7254V18.2247C88.7254 16.5102 88.4897 15.0145 88.0183 13.7374C87.547 12.4516 86.8871 11.3844 86.0386 10.5359C85.1988 9.68747 84.2132 9.0533 83.0819 8.63344C81.9592 8.20483 80.7465 7.99052 79.4439 7.99052C77.507 7.99052 75.8187 8.42788 74.3789 9.3026C72.9477 10.1773 71.8378 11.3975 71.0494 12.9633C70.2609 14.529 69.8667 16.3484 69.8667 18.4215C69.8667 20.5471 70.2609 22.3883 71.0494 23.9453C71.8378 25.4936 72.9605 26.6919 74.4175 27.5404ZM75.2839 16.2959C75.3169 15.5723 75.4995 14.9118 75.8315 14.3147C76.1915 13.6587 76.6886 13.1382 77.3228 12.7533C77.9655 12.3597 78.7026 12.1629 79.5339 12.1629C80.3309 12.1629 81.0294 12.3422 81.6293 12.7009C82.2378 13.0508 82.7134 13.5362 83.0562 14.1573C83.399 14.7783 83.5704 15.4912 83.5704 16.2959H75.2839ZM103.154 18.5096V15.8704H98.8608V18.5096H103.154ZM91.1468 18.5096V15.8704H95.6287V18.5096H91.1468ZM136.331 28.8C134.308 28.8 132.569 28.3626 131.112 27.4879C129.663 26.6045 128.549 25.3799 127.769 23.8141C126.998 22.2484 126.612 20.4465 126.612 18.4084C126.612 16.3441 127.002 14.5334 127.782 12.9764C128.571 11.4107 129.689 10.1904 131.137 9.31572C132.586 8.43225 134.308 7.99052 136.305 7.99052C138.028 7.99052 139.536 8.3098 140.83 8.94834C142.124 9.58688 143.148 10.4835 143.903 11.6381C144.657 12.7927 145.073 14.1485 145.15 15.7055H139.982C139.836 14.6996 139.45 13.8905 138.825 13.2782C138.208 12.6571 137.398 12.3466 136.395 12.3466C135.547 12.3466 134.805 12.5828 134.171 13.0551C133.546 13.5187 133.057 14.1966 132.706 15.0888C132.354 15.981 132.179 17.0613 132.179 18.3297C132.179 19.6155 132.35 20.7089 132.693 21.6098C133.044 22.5108 133.537 23.1974 134.171 23.6698C134.805 24.1421 135.547 24.3783 136.395 24.3783C137.021 24.3783 137.582 24.2471 138.079 23.9847C138.585 23.7223 139.001 23.3418 139.326 22.8432C139.66 22.3359 139.879 21.7279 139.982 21.0194H145.15C145.064 22.5589 144.653 23.9147 143.916 25.0868C143.187 26.2502 142.18 27.1599 140.895 27.8159C139.609 28.472 138.088 28.8 136.331 28.8ZM152.684 22.0077V28.4064H147.208V1.53513H152.684V15.9023H152.98L159.305 8.25294H165.591L158.267 16.9828L165.964 28.4064H159.549L154.168 20.2781L152.684 22.0077ZM175.015 28.8C172.984 28.8 171.236 28.3801 169.77 27.5404C168.313 26.6919 167.191 25.4936 166.402 23.9453C165.614 22.3883 165.22 20.5471 165.22 18.4215C165.22 16.3484 165.614 14.529 166.402 12.9633C167.191 11.3975 168.301 10.1773 169.732 9.3026C171.172 8.42788 172.86 7.99052 174.797 7.99052C176.099 7.99052 177.312 8.20483 178.435 8.63344C179.566 9.0533 180.552 9.68747 181.391 10.5359C182.24 11.3844 182.9 12.4516 183.371 13.7374C183.843 15.0145 184.078 16.5102 184.078 18.2247V19.7598H170.632V19.7729C170.632 20.7701 170.812 21.6317 171.172 22.3577C171.54 23.0837 172.059 23.6436 172.727 24.0372C173.396 24.4308 174.188 24.6276 175.105 24.6276C175.714 24.6276 176.271 24.5401 176.776 24.3652C177.282 24.1902 177.715 23.9278 178.075 23.5779C178.435 23.2281 178.709 22.7995 178.898 22.2921L183.963 22.6333C183.705 23.8754 183.178 24.96 182.381 25.8872C181.593 26.8056 180.573 27.5229 179.322 28.039C178.079 28.5463 176.644 28.8 175.015 28.8ZM171.184 14.3147C170.852 14.9118 170.67 15.5723 170.637 16.2959H178.923C178.923 15.4912 178.752 14.7783 178.409 14.1573C178.066 13.5362 177.591 13.0508 176.982 12.7009C176.382 12.3422 175.684 12.1629 174.887 12.1629C174.055 12.1629 173.318 12.3597 172.676 12.7533C172.041 13.1382 171.544 13.6587 171.184 14.3147ZM196.707 12.4516V8.25294H192.992V3.42451H187.515V8.25294H184.816V12.4516H187.515V22.9482C187.507 24.269 187.777 25.3624 188.325 26.2283C188.874 27.0943 189.641 27.7328 190.626 28.144C191.62 28.5551 192.777 28.7344 194.097 28.6819C194.808 28.6557 195.413 28.5813 195.91 28.4589C196.407 28.3451 196.792 28.2446 197.067 28.1571L196.205 23.9978C196.068 24.0241 195.871 24.0634 195.614 24.1159C195.357 24.1596 195.1 24.1815 194.843 24.1815C194.474 24.1815 194.149 24.1246 193.866 24.0109C193.591 23.8972 193.377 23.7004 193.223 23.4205C193.069 23.1318 192.992 22.7295 192.992 22.2134V12.4516H196.707Z" fill="#3567E9"/>
</svg>
