<svg width="360" height="334" viewBox="0 0 360 334" fill="none" xmlns="http://www.w3.org/2000/svg">
<path d="M154.412 266.866C152.27 263.442 150.685 259.741 149.712 255.844C149.239 253.923 148.766 251.892 148.738 249.915C148.738 248.941 148.849 247.689 149.712 247.049C150.463 246.52 152.103 246.548 152.187 247.772C152.465 247.772 152.743 247.772 153.021 247.772C152.938 247.049 152.437 240.035 153.522 240.424C153.856 240.536 154.078 240.202 154.023 239.923C153.216 234.579 153.133 229.124 153.8 223.752C154.134 221.08 154.662 218.436 155.358 215.847C155.83 214.066 156.776 209.112 159.502 209.863C161.81 210.476 161.671 214.706 161.866 216.488C162.172 219.327 162.45 222.166 162.7 224.977C163.201 230.571 163.59 236.138 163.896 241.732C164.258 248.162 164.48 254.591 164.591 261.021C164.591 261.55 165.426 261.55 165.426 261.021C165.175 247.8 164.452 234.579 163.173 221.414C162.895 218.492 162.811 215.458 162.199 212.591C161.893 211.116 161.17 209.279 159.502 208.973C157.583 208.583 156.331 210.392 155.691 211.923C154.579 214.567 153.967 217.545 153.438 220.356C152.243 226.897 152.159 233.577 153.16 240.146C153.327 239.979 153.494 239.812 153.661 239.645C150.824 238.671 151.992 246.687 152.103 247.8C152.159 248.329 152.966 248.357 152.938 247.8C152.854 246.353 151.353 245.657 150.018 245.991C147.932 246.492 147.709 249.025 147.876 250.778C148.404 256.623 150.49 262.357 153.605 267.311C153.995 267.729 154.718 267.311 154.412 266.866Z" fill="#E8E8E8"/>
<path d="M164.73 238.532C164.869 237.53 165.064 236.555 165.314 235.553C165.453 235.08 165.592 234.579 165.759 234.106C165.843 233.883 166.594 231.824 167.15 232.854C167.345 233.243 167.901 233.048 167.929 232.631C168.123 228.706 169.125 224.893 170.988 221.414C171.377 220.663 172.434 218.38 173.38 219.855C173.825 220.579 173.797 221.525 173.825 222.333C173.881 224.42 173.908 226.508 173.908 228.595C173.908 236.973 173.491 245.323 172.629 253.645C172.573 254.118 173.324 254.202 173.436 253.756C173.63 253.116 175.661 248.913 176.69 251.084C177.107 251.975 176.662 253.756 176.578 254.703C176.356 257.486 176.05 260.269 175.633 263.053C175.549 263.582 176.356 263.804 176.439 263.275C176.773 261.132 177.023 258.989 177.246 256.818C177.357 255.593 177.468 254.341 177.552 253.088C177.607 252.309 177.719 251.446 177.468 250.695C177.135 249.693 176.217 249.303 175.271 249.804C173.908 250.528 173.074 252.114 172.657 253.506C172.935 253.534 173.213 253.589 173.463 253.617C174.52 243.208 174.91 232.742 174.659 222.305C174.632 221.136 174.604 219.299 173.38 218.631C172.156 217.963 171.266 219.187 170.738 220.106C168.513 223.891 167.345 228.205 167.122 232.575C167.372 232.492 167.651 232.436 167.901 232.353C167.428 231.462 166.316 231.518 165.704 232.241C165.147 232.909 164.925 233.939 164.702 234.746C164.369 235.887 164.146 237.029 163.979 238.198C163.84 238.838 164.647 239.06 164.73 238.532Z" fill="#E8E8E8"/>
<path d="M31.0356 325.149C27.0862 321.976 23.6375 318.191 20.884 313.932C19.549 311.872 18.4087 309.729 17.4075 307.503C16.5175 305.499 14.7374 302.019 16.7956 300.182C16.9346 300.043 16.9346 299.821 16.8512 299.681C16.295 298.624 11.6781 289.912 13.6528 289.494C13.9309 289.439 14.0143 289.105 13.9031 288.882C11.3721 283.956 8.81339 278.89 7.7287 273.379C7.20026 270.763 6.8387 267.645 7.53401 265.029C7.7287 264.222 7.70089 264.333 8.59089 264.055C9.48089 263.776 9.48089 263.776 10.1484 264.417C10.6768 264.945 11.094 265.613 11.4834 266.254C12.2621 267.478 12.9853 268.731 13.6806 270.011C16.4062 275.049 18.7424 280.282 21.1899 285.431C23.7765 290.858 26.3909 296.258 28.9774 301.685C31.8978 307.781 34.8181 313.849 37.7384 319.944C37.9609 320.417 38.684 320 38.4615 319.527C32.5374 307.196 26.6412 294.838 20.7171 282.508C17.9359 276.691 15.405 270.568 11.7615 265.196C10.8715 263.888 8.98026 261.745 7.36714 263.415C6.78308 264.027 6.64401 264.89 6.53276 265.697C6.33808 267.256 6.31026 268.814 6.42151 270.373C6.94995 277.136 10.0928 283.371 13.1521 289.327C13.2356 289.133 13.319 288.91 13.4024 288.715C11.7059 289.077 12.2621 291.22 12.6515 292.361C13.5971 295.033 14.7374 297.622 16.1003 300.127C16.1281 299.96 16.1559 299.793 16.1559 299.626C14.5428 301.073 14.8765 303.355 15.4884 305.192C16.4062 307.837 17.7134 310.425 19.1318 312.819C22.08 317.773 25.8903 322.143 30.3681 325.761C30.8687 326.067 31.4528 325.483 31.0356 325.149Z" fill="#E8E8E8"/>
<path d="M27.6703 296.147C26.7247 294.616 26.0294 293.001 25.6122 291.248C25.4175 290.357 25.3062 289.467 25.2506 288.548C25.2228 288.158 25.2228 287.769 25.2506 287.351C25.2506 287.184 25.2784 287.045 25.2784 286.878C25.195 286.21 25.5009 285.904 26.224 285.932C26.4744 286.405 27.1697 285.987 26.9472 285.514C24.6387 280.616 23.2759 275.299 22.9978 269.9C22.8865 267.757 22.4415 264.194 24.0269 262.468C25.9181 260.381 28.4212 267.172 28.894 268.369C32.8156 278.333 36.3478 288.465 39.4628 298.735C41.2428 304.58 42.8837 310.481 44.3856 316.409C44.5247 316.938 45.3312 316.715 45.1922 316.187C42.105 304.079 38.4615 292.111 34.2897 280.337C33.2606 277.415 32.1759 274.52 31.0634 271.625C30.0622 269.009 29.2 266.254 27.7537 263.832C27.0584 262.663 25.6122 260.186 23.9712 261.327C22.2469 262.524 22.1356 265.252 22.1078 267.116C21.9965 273.629 23.4706 280.059 26.224 285.96C26.4744 285.82 26.6969 285.681 26.9472 285.542C26.6134 284.902 25.9181 284.707 25.2784 285.069C24.3606 285.598 24.4162 286.962 24.3884 287.852C24.3606 290.942 25.2784 293.976 26.9194 296.592C27.2253 297.037 27.9484 296.62 27.6703 296.147Z" fill="#E8E8E8"/>
<path d="M328.824 287.351C326.627 283.956 324.847 280.309 323.567 276.496C322.956 274.659 322.427 272.767 322.038 270.846C321.621 268.814 321.398 266.727 322.427 264.834C322.205 264.862 321.982 264.89 321.76 264.918C323.623 266.56 324.93 268.536 325.681 270.902C325.848 271.403 326.627 271.208 326.488 270.679C323.512 259.601 322.066 247.911 324.902 236.639C324.624 236.639 324.374 236.639 324.096 236.639C325.264 240.591 326.154 244.627 326.766 248.719C327.044 248.635 327.294 248.579 327.572 248.496C326.682 243.736 326.488 238.893 327.016 234.078C327.489 229.903 328.156 224.726 331.494 221.776C331.299 221.776 331.105 221.776 330.91 221.776C331.828 222.945 331.772 224.448 331.8 225.867C331.828 227.12 331.828 228.372 331.8 229.653C331.772 232.353 331.716 235.052 331.661 237.752C331.522 243.068 331.299 248.385 331.216 253.673C331.021 264.166 331.327 274.715 333.441 285.041C333.552 285.57 334.359 285.347 334.247 284.818C332.022 273.852 331.856 262.635 332.106 251.502C332.217 246.019 332.44 240.508 332.579 235.025C332.634 232.325 332.662 229.625 332.662 226.925C332.662 224.949 332.829 222.834 331.522 221.191C331.383 220.997 331.077 221.052 330.938 221.191C327.656 224.086 326.877 228.929 326.349 233.048C325.653 238.253 325.848 243.542 326.794 248.719C326.905 249.247 327.684 249.025 327.6 248.496C326.988 244.404 326.098 240.369 324.93 236.416C324.819 236.027 324.235 235.999 324.124 236.416C321.259 247.828 322.705 259.685 325.709 270.902C325.987 270.818 326.237 270.763 326.516 270.679C325.737 268.202 324.346 266.059 322.399 264.333C322.205 264.166 321.871 264.166 321.732 264.417C319.841 267.84 321.398 272.349 322.483 275.8C323.818 280.031 325.709 284.067 328.129 287.797C328.379 288.214 329.102 287.797 328.824 287.351Z" fill="#E8E8E8"/>
<path d="M332.356 268.035C332.189 263.331 332.857 258.711 334.387 254.285C334.22 254.369 334.053 254.48 333.886 254.564C334.164 254.898 334.442 255.232 334.72 255.566C334.804 256.039 335.527 255.9 335.527 255.454C335.749 250.611 336.639 245.824 338.197 241.231C338.976 238.921 339.921 236.667 341.034 234.468C342.091 232.38 343.231 230.209 345.289 228.929C345.094 228.762 344.872 228.623 344.677 228.456C341.785 244.571 339.56 260.77 338.002 277.081C338.28 277.081 338.558 277.081 338.837 277.081C338.837 273.796 339.893 270.707 341.951 268.146C341.701 268.035 341.479 267.951 341.228 267.84C341.201 271.458 340.867 275.077 340.199 278.639C340.088 279.168 340.811 279.363 341.006 278.862C341.673 277.081 343.036 275.745 344.816 275.105C344.649 274.938 344.482 274.771 344.316 274.604C343.62 278.083 342.925 281.59 342.202 285.069C342.091 285.598 342.897 285.82 343.008 285.292C343.704 281.812 344.399 278.305 345.122 274.826C345.178 274.548 344.927 274.186 344.621 274.325C342.536 275.105 341.006 276.608 340.227 278.667C340.505 278.751 340.756 278.806 341.034 278.89C341.729 275.244 342.091 271.57 342.118 267.868C342.118 267.534 341.646 267.283 341.395 267.562C339.198 270.289 338.002 273.574 338.03 277.081C338.03 277.637 338.809 277.61 338.864 277.081C340.394 260.854 342.619 244.711 345.511 228.679C345.567 228.345 345.233 228.011 344.9 228.205C343.092 229.347 341.924 231.1 340.922 232.965C339.699 235.247 338.642 237.641 337.78 240.09C336 245.045 335.026 250.222 334.776 255.482C335.054 255.454 335.332 255.399 335.582 255.371C335.416 254.536 334.971 254.063 334.164 253.784C333.942 253.701 333.719 253.868 333.663 254.063C332.134 258.572 331.438 263.275 331.605 268.035C331.522 268.564 332.356 268.564 332.356 268.035Z" fill="#E8E8E8"/>
<path d="M283.045 140.642C283.378 137.163 287.8 138.693 289.608 139.723C291.194 140.614 292.834 141.672 294.726 141.588C298.063 141.477 300.121 138.304 303.236 137.608C306.824 136.801 309.049 141.087 312.609 140.697C314.222 140.503 315.557 139.445 316.948 138.666C319.062 137.469 320.73 137.691 322.705 139.055C324.151 140.029 325.486 141.031 327.322 140.948C328.629 140.864 329.77 140.252 330.075 138.944C330.215 138.415 329.408 138.192 329.269 138.721C328.713 140.976 325.653 140.057 324.346 139.194C322.928 138.276 321.509 137.023 319.729 136.968C315.974 136.856 313.861 141.31 309.884 139.278C308.382 138.499 307.102 137.33 305.461 136.856C304.099 136.495 302.736 136.773 301.484 137.385C299.982 138.109 298.703 139.194 297.257 139.974C294.976 141.171 293.001 140.697 290.832 139.473C289.108 138.499 287.161 137.218 285.047 137.664C283.517 137.97 282.349 139.083 282.182 140.642C282.155 141.171 282.989 141.171 283.045 140.642Z" fill="#E8E8E8"/>
<path d="M310.746 151.469C311.914 149.354 314.723 148.352 316.865 149.576C318.339 150.411 319.535 152.193 321.398 152.193C323.568 152.193 324.597 149.799 326.488 149.131C329.213 148.185 330.827 149.91 332.885 151.274C334.22 152.165 335.666 152.304 337.029 151.385C338.614 150.328 339.671 148.129 341.785 148.018C344.983 147.851 349.6 153.362 352.548 149.548C352.882 149.131 352.298 148.546 351.964 148.964C349.489 152.165 344.872 147.238 342.007 147.183C340.672 147.155 339.615 147.823 338.67 148.713C337.585 149.743 336.473 151.385 334.776 151.191C333.079 150.996 331.967 149.27 330.465 148.574C329.158 147.962 327.6 147.878 326.238 148.352C324.597 148.908 323.79 150.467 322.288 151.135C320.425 151.998 318.978 149.994 317.56 149.075C315.001 147.377 311.413 148.407 309.967 151.079C309.773 151.525 310.496 151.942 310.746 151.469Z" fill="#E8E8E8"/>
<path d="M-16.8019 145.429C-16.7741 143.87 -15.0219 143.982 -14.1319 144.455C-13.5757 144.761 -13.1028 145.206 -12.63 145.624C-11.9903 146.181 -11.3507 146.765 -10.5719 147.071C-9.26472 147.572 -8.04097 147.21 -6.95628 146.403C-5.67691 145.457 -4.64785 143.898 -3.06253 143.453C-1.11566 142.896 0.497465 144.622 1.99934 145.54C3.22309 146.292 4.53028 146.765 5.94871 146.208C7.86778 145.457 8.75778 143.286 10.7047 142.562C11.7615 142.173 12.4847 142.34 13.2078 143.258C13.4859 143.592 13.6528 143.954 13.9865 144.26C14.4315 144.678 15.0156 144.9 15.6275 144.984C16.9625 145.151 18.2697 144.538 18.9372 143.369C19.2153 142.896 18.4922 142.479 18.214 142.952C17.6022 144.037 16.1559 144.511 15.0156 143.954C14.0978 143.481 13.8475 142.34 12.9575 141.839C11.5947 141.059 9.9259 141.839 8.84122 142.757C6.97778 144.316 5.58715 146.598 2.86153 145.123C1.44309 144.344 0.247154 143.063 -1.33816 142.674C-2.70097 142.34 -3.95253 142.841 -5.00941 143.676C-6.34441 144.705 -7.6516 146.709 -9.54285 146.515C-11.7122 146.292 -12.7135 143.62 -14.9107 143.342C-16.2735 143.147 -17.6085 144.037 -17.6363 145.457C-17.6641 145.958 -16.8297 145.958 -16.8019 145.429Z" fill="#E8E8E8"/>
<path d="M4.80838 139.027C5.28119 137.469 6.58837 136.411 8.17369 136.105C8.95244 135.938 9.78681 135.966 10.5377 136.244C11.4277 136.578 11.9006 137.246 12.5959 137.831C14.5427 139.501 16.4896 138.081 18.2418 136.856C19.3821 136.049 20.7727 135.047 22.0799 136.161C22.8865 136.856 23.3037 138.053 24.3884 138.415C25.5843 138.777 26.3074 137.831 27.0306 137.079C28.8384 135.159 31.2024 136.467 33.0102 137.691C33.4552 137.998 33.8724 137.274 33.4274 136.968C32.0646 136.049 30.3681 135.019 28.6437 135.214C28.004 135.298 27.4477 135.52 26.9749 135.938C26.1684 136.606 25.4174 138.276 24.1381 137.246C23.109 136.439 22.7474 135.075 21.3012 134.825C20.1331 134.63 19.0484 135.326 18.1027 135.938C17.0181 136.662 15.544 138.081 14.0977 137.719C13.1521 137.469 12.6237 136.467 11.8449 135.938C11.3165 135.576 10.7046 135.326 10.0371 135.214C7.47838 134.769 4.75275 136.244 4.02963 138.777C3.83494 139.306 4.6415 139.528 4.80838 139.027Z" fill="#E8E8E8"/>
<path d="M168.123 33.2886C167.845 31.9804 169.375 31.4516 170.293 31.6742C170.96 31.8134 171.572 32.3144 172.073 32.7319C172.852 33.3999 173.575 34.1792 174.465 34.7081C176.022 35.6266 177.496 35.3204 178.915 34.3462C179.693 33.8174 180.444 33.1216 181.334 32.8154C182.503 32.3979 183.559 32.7876 184.588 33.3721C185.951 34.1514 187.203 35.2926 188.816 35.5431C190.457 35.7936 191.764 34.8751 192.932 33.8174C194.629 32.2866 196.103 31.1176 198.495 31.9247C201.554 32.9546 204.474 35.7379 207.701 33.5112C208.591 32.8989 209.342 31.9804 210.371 31.6186C211.9 31.0897 212.429 32.5649 213.486 33.2886C215.043 34.4019 217.101 34.1792 218.575 33.0381C218.993 32.7041 218.408 32.1196 217.991 32.4536C216.74 33.4277 214.932 33.4556 213.708 32.3979C213.041 31.8134 212.623 31.0619 211.761 30.7557C210.12 30.1991 208.758 31.7021 207.589 32.5927C203.807 35.4039 200.608 30.6444 196.715 30.7557C194.907 30.8114 193.655 32.0639 192.404 33.2051C191.597 33.9287 190.679 34.7081 189.511 34.7359C188.399 34.7359 187.425 34.1236 186.535 33.5669C185.145 32.6762 183.671 31.5629 181.946 31.8134C180.027 32.0639 178.915 33.9287 177.079 34.4019C174.27 35.1256 172.796 31.1176 170.154 30.8114C168.568 30.6166 167.011 31.8969 167.372 33.5391C167.428 34.0401 168.235 33.8174 168.123 33.2886Z" fill="#E8E8E8"/>
<path d="M198.411 40.8871C199.496 38.7161 202.055 38.4099 204.168 39.1336C205.837 39.6903 207.395 41.2768 209.175 41.4438C210.677 41.5551 211.594 40.4418 212.651 39.5789C214.626 37.9646 216.795 38.2708 218.909 39.3841C220.105 40.0243 221.468 40.8593 222.886 40.6644C224.416 40.4418 225.028 39.1336 226.224 38.3821C227.698 37.4636 229.311 39.2171 230.896 39.3006C232.343 39.3841 233.705 38.7718 234.679 37.7419C235.04 37.3523 234.456 36.7678 234.095 37.1574C233.288 37.9924 232.259 38.4934 231.091 38.4934C229.923 38.4656 229.228 37.8254 228.198 37.4079C227.169 36.9904 226.279 37.2409 225.445 37.9368C224.75 38.4934 224.193 39.3006 223.359 39.6624C222.163 40.1634 220.995 39.5511 219.938 38.9944C218.548 38.2708 217.185 37.5193 215.544 37.6028C214.07 37.6863 212.846 38.3264 211.761 39.2728C210.621 40.2748 209.62 40.9984 208.062 40.2191C207.144 39.7738 206.31 39.1614 205.364 38.7439C202.722 37.5749 199.162 37.5749 197.716 40.4974C197.466 40.9428 198.161 41.3603 198.411 40.8871Z" fill="#E8E8E8"/>
<path d="M8.1181 202.126C9.39747 201.096 11.2331 199.788 12.8184 201.04C13.4859 201.569 13.9031 202.376 14.6262 202.849C15.6553 203.545 16.7678 203.378 17.6856 202.599C18.8815 201.597 19.9106 199.203 21.8018 199.843C23.2759 200.316 24.1381 201.959 25.4731 202.682C28.5325 204.352 29.8675 200.65 31.9256 199.287C34.0393 197.895 35.0406 200.845 36.4312 201.819C37.4881 202.543 38.9343 202.738 39.7131 201.597C40.019 201.151 39.2959 200.734 38.99 201.179C37.655 203.128 35.0406 198.674 33.8447 198.229C32.7043 197.811 31.6197 198.368 30.7853 199.147C29.7562 200.122 28.894 201.819 27.42 202.209C25.6678 202.654 24.3606 200.623 23.1368 199.704C22.219 199.008 21.1343 198.674 20.0497 199.147C18.7425 199.732 18.1306 201.151 17.0459 202.014C15.1547 203.517 14.0978 200.65 12.5959 199.927C10.7603 199.064 8.84122 200.4 7.47841 201.513C7.11684 201.875 7.70091 202.46 8.1181 202.126Z" fill="#E8E8E8"/>
<path d="M190.957 190.463C191.152 188.793 193.21 189.016 194.239 189.573C194.99 189.962 195.602 190.547 196.297 191.02C197.438 191.799 198.801 192.384 200.191 191.883C201.804 191.271 202.75 189.768 204.474 189.294C206.644 188.682 208.396 189.434 210.343 190.296C211.483 190.797 212.762 191.243 213.986 190.714C215.321 190.157 216.128 188.376 217.769 188.821C219.91 189.406 221.106 191.966 223.554 191.632C224.082 191.577 224.082 190.742 223.554 190.797C220.911 191.131 219.521 187.485 216.823 187.931C215.154 188.181 214.431 190.185 212.651 190.129C210.732 190.074 209.091 188.543 207.172 188.265C205.503 188.042 203.779 188.404 202.361 189.322C201.61 189.795 201.026 190.519 200.247 190.909C198.717 191.716 197.354 190.77 196.158 189.879C194.962 189.016 193.655 187.986 192.07 188.348C190.985 188.599 190.234 189.35 190.095 190.463C190.067 190.992 190.902 190.992 190.957 190.463Z" fill="#E8E8E8"/>
<path d="M307.019 63.9888C307.075 62.792 308.549 62.5136 309.522 62.6528C310.523 62.792 311.413 63.4321 312.331 63.8218C313.722 64.4341 314.946 64.4341 316.308 63.7661C317.31 63.293 318.2 62.7085 319.312 62.5415C320.564 62.3745 321.732 62.6528 322.844 63.293C324.179 64.0723 325.347 65.0465 326.961 65.13C329.77 65.297 332.162 63.1538 334.553 61.957C336.417 61.0106 338.141 60.7601 340.005 61.8178C341.423 62.5971 342.814 63.7383 344.538 63.5435C346.485 63.3208 347.013 61.1498 348.849 60.621C350.991 60.0086 353.382 60.9828 355.302 61.8456C355.774 62.0683 356.219 61.3446 355.719 61.122C352.993 59.8973 349.044 58.4778 346.596 61.0106C345.623 62.0126 344.955 63.0146 343.342 62.5971C342.035 62.2631 341.006 61.3168 339.81 60.7601C338.447 60.12 337.029 60.12 335.61 60.5931C332.634 61.5951 329.631 64.9908 326.265 64.1836C324.235 63.6826 322.872 61.9291 320.675 61.6786C319.868 61.5951 319.034 61.6508 318.255 61.9013C317.171 62.2353 316.281 62.9868 315.224 63.293C312.887 63.961 311.191 61.6508 308.91 61.7343C307.547 61.79 306.24 62.4858 306.157 63.9331C306.157 64.5455 306.991 64.5455 307.019 63.9888Z" fill="#E8E8E8"/>
<path d="M25.6678 178.69C27.4189 178.69 28.8385 177.269 28.8385 175.517C28.8385 173.765 27.4189 172.344 25.6678 172.344C23.9167 172.344 22.4972 173.765 22.4972 175.517C22.4972 177.269 23.9167 178.69 25.6678 178.69Z" fill="#3567E9"/>
<path d="M196.687 74.7046C198.761 74.7046 200.442 73.0223 200.442 70.9471C200.442 68.8719 198.761 67.1896 196.687 67.1896C194.613 67.1896 192.932 68.8719 192.932 70.9471C192.932 73.0223 194.613 74.7046 196.687 74.7046Z" fill="#3567E9"/>
<path d="M313.972 182.614C315.047 182.614 315.919 181.742 315.919 180.666C315.919 179.59 315.047 178.718 313.972 178.718C312.897 178.718 312.025 179.59 312.025 180.666C312.025 181.742 312.897 182.614 313.972 182.614Z" fill="#3567E9"/>
<path d="M341.952 38.0202C343.887 38.0202 345.456 36.4501 345.456 34.5132C345.456 32.5764 343.887 31.0062 341.952 31.0062C340.016 31.0062 338.447 32.5764 338.447 34.5132C338.447 36.4501 340.016 38.0202 341.952 38.0202Z" fill="#3567E9"/>
<path d="M12.4291 52.1317C13.9805 52.1317 15.2381 50.8731 15.2381 49.3206C15.2381 47.768 13.9805 46.5094 12.4291 46.5094C10.8777 46.5094 9.62 47.768 9.62 49.3206C9.62 50.8731 10.8777 52.1317 12.4291 52.1317Z" fill="#3567E9"/>
<path d="M20.9119 63.7383C22.2176 63.7383 23.276 62.679 23.276 61.3724C23.276 60.0658 22.2176 59.0066 20.9119 59.0066C19.6063 59.0066 18.5479 60.0658 18.5479 61.3724C18.5479 62.679 19.6063 63.7383 20.9119 63.7383Z" fill="#5222D0"/>
<path d="M18.075 188.292C19.6418 188.292 20.9119 187.021 20.9119 185.453C20.9119 183.885 19.6418 182.614 18.075 182.614C16.5083 182.614 15.2382 183.885 15.2382 185.453C15.2382 187.021 16.5083 188.292 18.075 188.292Z" fill="#5222D0"/>
<path d="M325.514 45.0621C326.636 45.0621 327.545 44.1524 327.545 43.0302C327.545 41.9081 326.636 40.9984 325.514 40.9984C324.393 40.9984 323.484 41.9081 323.484 43.0302C323.484 44.1524 324.393 45.0621 325.514 45.0621Z" fill="#5222D0"/>
<path d="M185.673 171.231C187.071 171.231 188.204 170.097 188.204 168.698C188.204 167.299 187.071 166.165 185.673 166.165C184.275 166.165 183.142 167.299 183.142 168.698C183.142 170.097 184.275 171.231 185.673 171.231Z" fill="#5222D0"/>
<path d="M306.212 194.527C307.472 194.527 308.493 193.505 308.493 192.245C308.493 190.984 307.472 189.962 306.212 189.962C304.953 189.962 303.932 190.984 303.932 192.245C303.932 193.505 304.953 194.527 306.212 194.527Z" fill="#5222D0"/>
<path d="M301.234 119.266C302.124 118.403 303.125 117.484 304.349 117.15C305.879 116.733 306.491 117.735 307.714 118.319C308.827 118.848 309.884 118.459 310.885 117.902C311.553 117.512 312.22 117.011 312.971 116.816C314.167 116.51 314.723 117.373 315.502 118.041C316.448 118.848 317.504 118.96 318.7 118.57C320.091 118.125 321.676 116.761 323.206 117.234C324.652 117.679 325.153 119.488 326.849 119.572C328.296 119.628 329.464 118.486 330.576 117.763C332.996 116.204 335.249 117.401 337.418 118.82C337.863 119.127 338.28 118.403 337.835 118.097C336.278 117.039 334.442 115.898 332.468 116.121C330.66 116.315 329.519 117.763 327.934 118.459C325.737 119.433 324.986 116.594 323.039 116.315C321.565 116.121 320.202 117.067 318.895 117.596C317.727 118.069 316.837 118.069 315.863 117.206C315.363 116.761 314.973 116.26 314.306 116.009C312.971 115.536 311.747 116.455 310.635 117.095C309.467 117.763 308.688 117.958 307.492 117.178C306.824 116.733 306.324 116.315 305.489 116.232C303.598 116.037 301.957 117.484 300.706 118.709C300.261 119.043 300.845 119.655 301.234 119.266Z" fill="#5222D0"/>
<path d="M-5.95508 242.929C-4.8982 241.649 -3.5632 241.732 -2.28383 242.54C-1.58851 242.957 -1.03227 243.319 -0.19789 243.263C1.27617 243.152 2.38867 241.955 3.61242 241.287C4.91961 240.563 5.78179 240.842 6.86648 241.844C7.45054 242.4 8.00679 242.957 8.81336 243.152C10.204 243.458 11.3999 242.54 12.4568 241.76C13.2077 241.204 13.9865 240.536 14.9043 240.341C16.0168 240.09 16.9624 240.675 17.8802 241.176C19.3543 241.955 20.7449 242.428 22.2746 241.482C22.9977 241.037 23.5818 240.396 24.2771 239.923C25.4174 239.172 26.4465 239.339 27.6702 239.701C29.1165 240.118 30.5627 240.647 31.8143 239.561C32.2315 239.2 31.6196 238.615 31.2302 238.977C29.7005 240.257 27.1418 238.281 25.334 238.587C23.554 238.893 22.664 240.73 20.9952 241.176C18.9927 241.677 17.4074 239.422 15.4049 239.478C13.8474 239.506 12.6515 240.647 11.4834 241.482C10.6212 242.094 9.59211 242.762 8.50742 242.206C7.72867 241.788 7.25586 240.981 6.53273 240.508C5.19773 239.645 3.86273 240.174 2.63898 240.953C1.9993 241.371 1.41524 241.844 0.719923 242.178C-0.642889 242.818 -1.3382 242.011 -2.50633 241.454C-3.92477 240.758 -5.5657 241.204 -6.53914 242.4C-6.87289 242.762 -6.28883 243.347 -5.95508 242.929Z" fill="#5222D0"/>
<path d="M168.04 20.1234C168.874 21.4594 170.265 22.2944 171.822 22.4058C173.881 22.5449 174.743 21.2646 176.439 20.4574C178.497 19.4833 180.083 21.9883 182.224 21.6821C183.782 21.4594 184.978 20.2626 186.257 19.4276C187.175 18.8153 188.176 18.3699 189.289 18.6761C190.207 18.8988 190.985 19.4833 191.792 19.9286C193.127 20.6801 194.517 21.0698 195.852 20.1234C196.742 19.5111 197.327 18.3978 198.439 18.1194C200.024 17.7019 201.498 18.9823 202.778 19.7059C204.252 20.5688 206.06 21.1811 207.589 20.1234C208.034 19.8173 207.617 19.0936 207.172 19.3998C205.031 20.9028 202.667 18.3978 200.747 17.6184C199.246 17.0061 197.883 17.1453 196.687 18.2308C195.769 19.0379 195.102 20.0678 193.711 19.8451C192.821 19.7059 192.014 19.0936 191.263 18.6483C190.04 17.9524 188.76 17.4793 187.37 17.9246C185.951 18.3978 184.894 19.4833 183.643 20.2348C182.808 20.7358 181.918 21.0698 180.973 20.7636C180.111 20.5131 179.443 19.8729 178.609 19.5668C176.829 18.9266 175.772 20.0399 174.353 20.9306C172.462 22.0996 170.015 21.5986 168.791 19.7059C168.457 19.2328 167.734 19.6503 168.04 20.1234Z" fill="#3567E9"/>
<path d="M46.2768 48.6527C45.8874 50.1835 46.2768 320.974 46.2768 320.974L144.844 269.176V25.8015L46.2768 48.6527Z" fill="white" stroke="#161616" stroke-width="3" stroke-miterlimit="10"/>
<path d="M46.249 300.433L144.844 252.977V269.176L46.2768 320.974L46.249 300.433Z" fill="#161616" stroke="#161616" stroke-width="3" stroke-miterlimit="10"/>
<path d="M99.5655 287.268C101.777 287.268 103.571 285.473 103.571 283.26C103.571 281.046 101.777 279.252 99.5655 279.252C97.3536 279.252 95.5605 281.046 95.5605 283.26C95.5605 285.473 97.3536 287.268 99.5655 287.268Z" fill="white" stroke="#161616" stroke-width="3" stroke-miterlimit="10"/>
<path d="M242.911 90.9593C241.41 90.8758 240.158 91.6552 236.515 95.3013C232.843 98.9753 231.091 101.202 228.365 104.264C227.392 105.377 228.143 104.486 218.158 114.284C217.268 115.174 215.655 116.733 213.096 117.819C212.29 118.153 210.426 118.904 208.174 118.876C206.783 118.848 204.419 118.514 200.386 115.592C199.218 114.729 196.604 112.725 190.735 105.294C189.567 103.818 187.314 100.924 184.755 97.4723C183.003 95.0787 180.639 93.1025 179.165 90.514C178.581 89.512 177.608 87.6193 175.967 87.341C175.8 87.3132 174.91 87.2018 174.437 87.7028C173.825 88.3708 174.159 89.846 174.771 90.7645C175.383 91.7108 176.05 91.7665 176.412 92.7407C176.634 93.2973 176.606 93.8262 176.551 94.1602C173.992 92.685 171.767 91.5995 170.126 90.8202C167.039 89.3728 165.314 88.8162 163.701 88.4265C159.641 87.4523 158.167 88.0647 157.416 88.5935C157.221 88.7327 156.109 89.4842 156.22 90.2635C156.359 91.2377 158.334 91.683 159.835 92.0448C162.283 92.6293 163.896 92.4902 163.924 92.7407C163.952 93.0468 161.31 93.2973 157.805 94.7725C156.387 95.3848 154.968 96.1085 153.939 97.5837C153.8 97.8063 152.771 99.2258 153.188 99.7268C153.494 100.117 154.607 99.8938 155.914 99.198C155.803 99.365 155.163 100.395 155.58 101.091C156.025 101.87 157.471 101.703 158.25 101.62C159.669 101.453 160.503 100.979 161.31 100.645C162.394 100.2 164.091 99.7825 166.566 100.117C164.397 101.007 162.756 101.981 161.615 102.733C159.168 104.347 158.834 105.099 158.834 105.711C158.834 106.323 159.168 107.158 159.808 107.381C161.143 107.854 162.172 105.182 164.73 104.987C165.509 104.932 166.288 105.21 167.79 105.767C169.709 106.49 170.821 107.214 171.6 107.632C173.019 108.383 175.244 109.079 178.748 108.661C182.642 113.17 186.202 116.622 188.788 119.015C194.879 124.582 198.022 127.393 203.195 129.119C207.478 130.538 211.038 130.511 213.208 130.483C221.329 130.371 227.225 127.365 229.951 125.918C233.177 124.22 239.073 121.131 243.468 114.451C245.359 111.584 246.332 108.55 248.279 102.482C248.835 100.729 249.225 99.3372 248.947 97.6115C248.39 94.4942 245.832 91.1263 242.911 90.9593Z" fill="white"/>
<path opacity="0.15" d="M159.084 106.713C158.806 106.101 160.169 104.904 160.392 104.737C162.338 103.039 164.786 102.733 165.898 102.622C168.735 102.343 172.407 101.981 176.412 103.29C184.283 105.822 184.31 111.695 192.96 118.403C195.686 120.518 203.139 126.308 212.79 126.029C219.354 125.835 223.999 122.94 228.949 119.85C233.622 116.928 241.465 111.111 248.251 100.395C248.251 101.564 248.196 103.206 247.779 105.127C246.694 110.387 244.024 113.866 242.355 115.982C236.598 123.274 229.311 126.336 226.446 127.505C223.331 128.785 219.02 130.511 213.18 130.483C203.362 130.427 196.298 125.417 194.351 123.998C192.153 122.383 189.15 119.266 183.087 113.031C181.001 110.888 179.332 109.107 178.219 107.91C177.691 108.244 176.829 108.717 175.744 108.801C173.603 108.968 172.657 107.548 169.153 106.212C166.928 105.377 165.843 104.96 164.675 105.294C163.228 105.739 162.672 106.88 160.753 107.075C160.503 107.075 159.335 107.186 159.084 106.713Z" fill="#7A7A7A"/>
<path d="M242.689 90.5975C237.071 93.2417 233.038 98.0569 229.116 102.705C224.694 107.938 219.716 113.421 213.764 116.956C206.393 121.326 199.83 115.035 195.129 109.83C190.207 104.375 186.146 98.2795 181.501 92.6294C180.25 91.0707 178.915 89.5677 177.524 88.1482C176.773 87.3967 175.772 86.3669 174.604 87.007C173.797 87.4524 173.463 88.5657 173.63 89.4285C173.992 91.2934 176.412 92.4067 176.078 94.4385C175.994 94.9674 176.801 95.19 176.884 94.6612C177.079 93.4922 176.662 92.5737 175.967 91.6274C175.549 91.0707 175.021 90.5697 174.715 89.9295C174.326 89.0945 174.075 87.0627 176.273 88.0647C176.634 88.2317 177.023 88.8162 177.302 89.0945C179.805 91.7109 182.058 94.5777 184.255 97.4724C188.371 102.956 192.459 108.467 197.299 113.337C201.443 117.54 207.283 121.103 213.18 118.236C215.933 116.9 218.408 114.701 220.689 112.697C223.303 110.415 225.723 107.938 228.004 105.321C232.509 100.117 236.737 94.3272 243.134 91.3212C243.607 91.0985 243.189 90.3749 242.689 90.5975Z" fill="#161616"/>
<path d="M167.512 94.2715C165.759 92.9077 163.785 92.0448 161.56 91.7943C160.364 91.6552 159.057 91.7387 157.916 91.2377C157.193 90.9037 157.054 90.848 157.026 89.9852C156.998 89.1223 157.054 89.178 157.777 88.9275C158.584 88.6492 159.418 88.5378 160.252 88.51C163.117 88.3987 165.954 89.3728 168.541 90.5418C171.238 91.7387 173.797 93.2138 176.245 94.8282C176.69 95.1343 177.107 94.4107 176.662 94.1045C173.63 92.1005 170.432 90.3192 167.039 89.011C164.063 87.8698 160.67 87.1462 157.555 88.1203C156.804 88.3708 155.914 88.7327 155.775 89.6233C155.58 90.7367 156.665 91.5995 157.555 91.9892C158.751 92.518 160.086 92.4623 161.365 92.6015C163.423 92.7963 165.314 93.5757 166.927 94.8282C167.345 95.19 167.929 94.6055 167.512 94.2715Z" fill="#161616"/>
<path d="M163.812 92.3788C161.365 92.7685 159.001 93.5757 156.859 94.856C155.357 95.7467 152.604 97.3332 152.715 99.3928C152.827 101.898 155.385 100.144 156.498 99.6155C159.279 98.2517 162.311 97.4723 165.398 97.2497C165.926 97.2218 165.926 96.3868 165.398 96.4147C163.59 96.5538 161.782 96.8322 160.03 97.361C159.084 97.6393 158.194 97.9733 157.277 98.363C156.498 98.697 155.58 99.4485 154.773 99.6155C154.217 100.033 153.939 99.6155 153.911 98.363C154.106 98.0847 154.356 97.8063 154.607 97.5837C155.024 97.194 155.497 96.8322 155.942 96.4982C156.692 95.9693 157.471 95.4962 158.278 95.0787C160.086 94.1602 162.032 93.5478 164.035 93.2417C164.563 93.1025 164.341 92.2953 163.812 92.3788Z" fill="#161616"/>
<path d="M156.665 98.5022C155.719 99.3929 153.939 102.51 156.442 102.622C157.026 102.649 157.61 102.315 158.139 102.093C158.89 101.787 159.668 101.508 160.447 101.286C161.309 101.035 162.199 100.84 163.089 100.673C163.868 100.534 165.648 100.061 166.371 100.562C166.816 100.868 167.233 100.144 166.788 99.8382C165.537 98.9476 162.756 99.8382 161.421 100.144C160.308 100.395 159.223 100.757 158.139 101.174C157.666 101.369 156.081 102.315 156.081 100.785C156.081 100.2 156.859 99.4207 157.249 99.0589C157.666 98.7249 157.082 98.1404 156.665 98.5022Z" fill="#161616"/>
<path d="M166.594 99.9773C164.146 100.868 161.504 101.842 159.696 103.79C158.834 104.709 156.943 107.854 159.557 107.826C160.864 107.798 162.116 106.769 163.256 106.212C165.287 105.266 167.261 105.85 169.153 106.796C172.101 108.272 174.604 109.468 177.997 108.94C178.525 108.856 178.303 108.049 177.774 108.132C174.548 108.633 172.156 107.325 169.347 105.961C167.539 105.071 165.537 104.458 163.534 105.182C162.589 105.544 161.754 106.128 160.837 106.546C160.475 106.741 160.086 106.852 159.696 106.963C159.112 106.49 159.001 106.017 159.39 105.544C159.557 105.015 160.169 104.486 160.559 104.097C162.283 102.427 164.619 101.564 166.816 100.784C167.317 100.617 167.094 99.8103 166.594 99.9773Z" fill="#161616"/>
<path d="M178.108 108.578C182.697 113.727 187.537 118.709 192.737 123.19C197.271 127.115 202.277 129.926 208.285 130.678C219.883 132.097 232.676 126.948 240.631 118.542C245.136 113.783 248.168 107.743 248.919 101.202C248.974 100.673 248.14 100.673 248.084 101.202C246.749 112.976 237.905 122.077 227.392 126.67C221.996 129.035 216.072 130.399 210.148 130.037C203.835 129.648 198.467 127.004 193.683 122.94C188.315 118.375 183.365 113.254 178.664 107.993C178.358 107.576 177.747 108.188 178.108 108.578Z" fill="#161616"/>
<path d="M246.277 290.886C246.388 294.421 246.527 297.984 246.638 301.519C243.885 302.159 240.492 303.188 236.793 304.97C232.871 306.835 229.617 307.336 228.894 309.757C228.727 310.342 228.727 310.843 228.755 311.177C230.09 311.149 232.064 311.065 234.429 310.731C238.322 310.175 241.048 309.256 243.106 308.616C246.054 307.698 250.254 306.528 255.705 305.526C255.594 304.497 255.483 303.467 255.399 302.437C255.01 298.011 254.843 293.781 254.815 289.717C251.978 290.135 249.114 290.496 246.277 290.886Z" fill="black"/>
<path d="M230.646 161.433C230.59 162.63 230.535 164.356 230.451 166.443C230.312 170.173 229.839 184.034 230.062 200.344C230.562 237.418 234.428 268.731 235.457 276.775C236.153 282.286 236.82 286.795 237.237 289.661C238.378 290.246 239.657 290.747 241.076 291.081C249.642 293.224 257.318 288.492 259.793 286.822C259.154 282.759 258.236 276.802 257.318 269.594C255.316 254.09 252.757 233.716 252.896 208.75C252.952 198.173 253.508 183.839 255.622 166.833C256.345 164.912 259.599 155.839 256.039 152.443C252.34 148.936 241.799 151.775 230.646 161.433Z" fill="white"/>
<path opacity="0.17" d="M248.001 172.372C247.667 175.545 247.167 180.917 246.777 187.569C246.165 197.756 244.636 230.098 251.088 273.49C251.728 277.832 252.618 283.427 253.842 289.968C255.816 288.91 257.819 287.852 259.794 286.822C256.401 267.2 254.787 250.556 253.953 237.947C253.23 227.064 253.063 218.352 252.98 213.482C252.674 197.867 253.063 184.591 253.536 174.431C251.7 173.763 249.865 173.068 248.001 172.372Z" fill="#7A7A7A"/>
<path d="M230.229 161.433C228.783 194.972 229.784 228.595 233.316 261.967C234.29 271.264 235.485 280.532 236.848 289.773C236.932 290.302 237.738 290.079 237.655 289.55C232.788 256.484 230.368 223.056 230.424 189.601C230.451 180.221 230.674 170.813 231.063 161.433C231.091 160.904 230.257 160.904 230.229 161.433Z" fill="#161616"/>
<path d="M237.154 290.19C244.719 293.447 253.675 292.25 260.099 287.101C260.517 286.767 259.933 286.182 259.515 286.516C253.397 291.415 244.775 292.584 237.571 289.467C237.071 289.272 236.653 289.996 237.154 290.19Z" fill="#161616"/>
<path d="M252.952 176.463C251.672 205.243 252.674 234.106 256.039 262.719C256.985 270.735 258.097 278.695 259.404 286.655C259.488 287.184 260.294 286.962 260.211 286.433C255.566 258.043 253.23 229.291 253.23 200.511C253.23 192.495 253.425 184.479 253.786 176.463C253.814 175.907 252.98 175.907 252.952 176.463Z" fill="#161616"/>
<path d="M245.776 291.972C245.915 295.145 246.054 298.345 246.221 301.518C246.332 301.379 246.416 301.24 246.527 301.129C242.272 302.131 238.183 303.662 234.345 305.749C233.316 306.306 226.057 309.868 228.449 311.455C229.895 312.429 232.064 311.733 233.566 311.371C236.042 310.759 238.517 310.175 240.992 309.562C245.943 308.365 250.866 307.141 255.816 305.944C255.983 305.916 256.15 305.721 256.122 305.554C255.566 300.294 255.26 295.033 255.232 289.745C255.232 289.216 254.398 289.216 254.398 289.745C254.426 295.033 254.704 300.322 255.288 305.554C255.399 305.415 255.483 305.276 255.594 305.165C251.617 306.139 247.639 307.113 243.69 308.087C239.768 309.033 235.847 310.175 231.898 310.954C231.397 311.065 230.869 311.121 230.368 311.121C230.006 311.121 229.673 311.093 229.339 310.982C228.838 310.592 228.783 310.314 229.255 310.091C229.645 309.479 230.896 308.894 231.508 308.505C232.982 307.53 234.512 306.64 236.069 305.86C239.463 304.135 243.078 302.854 246.777 301.992C246.944 301.964 247.083 301.769 247.083 301.602C246.944 298.429 246.805 295.228 246.638 292.055C246.583 291.443 245.748 291.443 245.776 291.972Z" fill="#161616"/>
<path d="M300.928 287.268C302.068 288.938 303.209 290.636 304.349 292.306C303.737 293.558 302.708 295.534 301.29 297.872C298.898 301.741 297.507 303.105 295.449 306.473C294.503 308.032 293.196 310.397 291.945 313.543C292.807 313.264 294.086 312.763 295.505 311.928C298.314 310.258 299.426 308.533 301.902 305.972C305.295 302.437 305.74 303.049 308.716 299.96C310.19 298.429 312.276 295.98 314.362 292.473C313.972 291.387 313.527 290.274 313.054 289.161C311.886 286.461 310.635 284.011 309.383 281.868C306.574 283.649 303.765 285.459 300.928 287.268Z" fill="black"/>
<path d="M242.744 161.489C241.493 162.992 239.212 165.748 239.907 168.726C240.325 170.535 241.66 171.704 242.522 172.344C243.467 172.678 244.83 173.29 246.054 174.487C247.139 175.573 247.862 176.853 249.447 181.891C250.448 185.092 250.893 186.734 251.116 187.792C252.701 195.112 261.573 222.388 265.078 232.047C272.532 252.671 284.407 273.129 294.448 288.52C296.283 288.409 298.508 288.075 300.928 287.24C307.547 284.93 311.386 280.226 313.027 277.944C311.636 274.993 309.633 270.707 307.297 265.502C296.784 241.872 290.471 223.279 285.826 209.502C276.87 182.976 272.309 165.581 271.308 161.628C270.14 157.091 269.25 153.306 268.61 150.634C265.717 151.135 248.947 154.03 242.744 161.489Z" fill="white"/>
<path opacity="0.15" d="M263.131 155.811C264.16 160.042 265.717 166.332 267.776 173.903C270.446 183.728 277.788 210.002 290.721 243.736C294.782 254.285 300.288 267.979 307.381 283.761C309.272 281.924 311.191 280.087 313.082 278.25C311.246 274.019 308.632 267.868 305.545 260.436C298.508 243.43 292.946 230.015 286.966 212.869C281.07 195.947 277.093 182.113 272.281 165.33C270.056 157.592 268.304 151.135 267.052 146.515C265.773 149.632 264.466 152.721 263.131 155.811Z" fill="#7A7A7A"/>
<path d="M269.194 155.254C277.427 187.068 287.689 218.352 299.927 248.83C303.348 257.375 306.963 265.892 310.69 274.325C310.913 274.826 311.636 274.381 311.413 273.908C298.119 243.903 286.744 213.064 277.371 181.585C274.757 172.789 272.281 163.938 270.001 155.032C269.862 154.531 269.055 154.753 269.194 155.254Z" fill="#161616"/>
<path d="M242.411 172.734C245.971 173.429 247.472 177.243 248.446 180.332C249.753 184.479 250.949 188.654 252.201 192.801C254.787 201.402 257.346 210.002 259.988 218.603C264.911 234.551 271.92 249.609 279.93 264.194C284.463 272.488 289.275 280.616 294.086 288.743C294.364 289.216 295.087 288.799 294.809 288.325C286.076 273.546 277.315 258.739 270.195 243.124C262.714 226.702 258.041 209.279 252.84 192.05C251.45 187.485 250.309 182.754 248.613 178.3C247.528 175.489 245.832 172.539 242.633 171.926C242.105 171.843 241.882 172.65 242.411 172.734Z" fill="#161616"/>
<path d="M294.754 289.161C302.096 288.214 308.827 284.429 313.388 278.584C313.722 278.166 313.138 277.582 312.804 277.999C308.41 283.677 301.902 287.435 294.754 288.353C294.225 288.381 294.225 289.216 294.754 289.161Z" fill="#161616"/>
<path d="M310.635 274.325C311.413 275.55 312.081 276.858 312.665 278.194C312.887 278.695 313.611 278.25 313.388 277.777C312.804 276.441 312.137 275.16 311.358 273.908C311.08 273.462 310.357 273.88 310.635 274.325Z" fill="#161616"/>
<path d="M300.567 287.463C301.401 288.576 302.235 289.661 303.07 290.775C303.737 291.638 304.099 291.944 303.626 293.252C303.431 293.809 303.014 294.337 302.708 294.866C301.457 296.982 300.038 299.013 298.62 301.017C295.894 304.942 293.168 308.894 291.528 313.431C291.416 313.709 291.694 313.932 291.917 313.96C294.142 314.127 295.811 312.206 297.313 310.843C299.343 308.978 301.345 307.113 303.292 305.165C307.214 301.296 310.968 297.288 314.556 293.141C314.918 292.723 314.306 292.139 313.972 292.556C310.718 296.314 307.325 299.988 303.793 303.495C302.096 305.192 300.372 306.862 298.62 308.505C297.73 309.312 296.868 310.147 295.95 310.954C294.782 312.012 293.586 313.292 291.917 313.153C292.056 313.32 292.195 313.515 292.306 313.682C294.17 308.477 297.535 304.079 300.622 299.57C301.957 297.622 303.682 295.479 304.516 293.224C304.878 292.25 304.627 291.61 304.043 290.775C303.153 289.522 302.18 288.298 301.234 287.045C300.984 286.628 300.261 287.045 300.567 287.463Z" fill="#161616"/>
<path d="M309.022 282.063C310.968 285.431 312.637 288.938 313.972 292.584C314.167 293.085 314.973 292.862 314.779 292.361C313.416 288.632 311.747 285.069 309.745 281.646C309.467 281.172 308.743 281.618 309.022 282.063Z" fill="#161616"/>
<path d="M242.744 89.7346C238.072 93.1581 236.181 97.5001 234.234 101.898C231.258 108.606 230.841 114.172 230.145 124.304C230.006 126.475 229.784 129.759 229.839 145.485C229.867 152.026 229.895 157.453 229.923 161.211C232.342 162.101 235.068 162.881 238.1 163.326C252.979 165.525 265.189 158.706 270.306 155.393C269.528 150.968 268.749 146.515 267.97 142.089C268.221 135.159 269.083 129.648 269.806 125.946C271.113 119.377 272.42 116.26 273.811 107.965C275.424 98.196 274.729 95.7188 273.811 93.9375C271.475 89.345 266.746 87.5636 264.466 86.7008C257.401 84.001 248.919 85.1978 242.744 89.7346Z" fill="#3567E9"/>
<path d="M273.422 95.3848C271.614 96.025 270.501 97.361 269.472 98.9196C266.913 102.788 265.912 106.462 265.523 107.91C263.576 114.952 262.63 118.486 260.989 121.826C259.654 124.582 257.624 128.673 253.341 132.013C250.838 133.99 248.641 134.825 244.246 136.522C240.77 137.858 237.182 139.222 232.315 139.584C228.922 139.835 226.085 139.528 224.138 139.194C219.994 138.192 217.185 136.662 215.293 135.353C213.792 134.296 211.817 132.654 209.787 133.182C209.508 133.266 208.507 133.544 208.313 134.24C208.062 135.186 209.342 136.328 210.677 137.524C211.372 138.137 211.984 138.61 212.401 138.888C209.787 140.085 207.617 141.226 206.004 142.089C200.553 145.039 198.356 146.849 197.521 147.572C196.937 148.045 195.38 148.546 195.129 149.799C195.018 150.356 195.157 151.107 195.602 151.358C196.075 151.636 196.659 151.218 198.272 150.439C199.19 149.994 199.969 149.688 200.497 149.465C201.387 149.882 202.416 150.3 203.557 150.634C206.282 151.413 208.702 151.497 210.482 151.413C209.425 152.276 208.507 152.944 207.895 153.389C206.171 154.642 205.337 155.059 205.253 155.894C205.198 156.423 205.42 157.036 205.865 157.314C206.699 157.843 208.09 157.036 208.897 156.562C211.094 155.31 213.597 154.642 215.85 153.445C217.713 152.443 220.411 151.024 223.888 149.381C230.006 148.519 234.595 147.878 236.932 147.544C239.991 147.127 246.861 146.153 255.26 144.288C258.458 143.564 261.045 142.924 263.965 141.143C264.605 140.753 267.303 139.083 269.973 135.938C272.532 132.932 273.728 130.176 275.174 126.753C276.787 122.995 277.538 120.017 278.289 117.206C279.485 112.641 279.874 109.552 279.985 108.606C280.263 106.379 280.514 103.289 279.818 99.6433C279.318 96.9991 278.706 96.1085 277.899 95.5796C276.147 94.3828 273.839 95.2178 273.422 95.3848Z" fill="white"/>
<path opacity="0.14" d="M277.9 95.5796C277.594 98.5021 277.037 102.594 275.98 107.409C274.479 114.311 273.227 119.906 270.474 124.832C264.494 135.409 253.174 139.584 248.863 141.171C243.996 142.98 236.848 144.26 222.58 146.821C222.58 146.821 221.412 147.043 210.482 151.413C209.898 151.636 207.562 152.61 206.115 154.92C205.893 155.282 205.031 156.618 205.476 157.147C205.976 157.759 207.923 157.008 208.924 156.59C213.374 154.753 219.521 151.692 223.915 149.409C228.755 148.713 232.704 148.185 235.374 147.823C249.976 145.902 254.203 145.68 260.211 142.924C262.77 141.755 265.634 140.419 268.555 137.58C272.115 134.157 273.561 130.65 275.702 125.5C278.011 119.934 278.734 115.87 279.791 109.969C280.43 106.323 280.681 103.763 279.958 100.729C279.457 98.4464 278.595 96.7208 277.9 95.5796Z" fill="#7A7A7A"/>
<path d="M212.846 138.387C212.123 137.97 211.427 137.552 210.76 137.051C210.398 136.773 210.037 136.495 209.703 136.188C209.036 135.576 209.063 135.743 209.175 134.713C209.202 134.407 209.23 134.101 209.286 133.823C209.842 133.544 210.426 133.516 211.01 133.711C211.4 133.823 211.789 134.017 212.178 134.184C212.985 134.574 213.764 134.992 214.542 135.409C217.185 136.829 219.827 138.359 222.719 139.25C228.81 141.087 235.263 139.89 241.187 138.025C246.694 136.272 252.368 134.184 256.373 129.842C259.96 125.974 262.046 120.991 263.632 116.009C265.3 110.804 266.107 105.071 268.999 100.367C270.446 97.9733 273.811 93.9931 277.037 95.5518C279.958 96.9713 279.846 102.148 279.818 104.848C279.763 111.305 277.955 117.818 275.841 123.886C274.006 129.119 271.503 134.351 267.386 138.137C262.074 143.035 254.787 144.037 247.973 145.262C239.991 146.682 232.009 148.045 223.943 148.964C223.415 149.02 223.415 149.855 223.943 149.799C231.536 148.908 239.073 147.656 246.582 146.348C253.174 145.179 260.405 144.427 265.968 140.363C270.613 136.996 273.561 131.93 275.674 126.697C278.177 120.463 280.124 113.643 280.597 106.908C280.875 102.816 280.764 92.0448 273.783 94.8003C268.388 96.9157 266.274 103.763 264.855 108.828C263.242 114.701 261.685 120.713 258.375 125.89C256.595 128.646 254.342 131.039 251.533 132.765C248.446 134.685 244.914 135.938 241.465 137.051C237.46 138.359 233.288 139.361 229.033 139.334C224.666 139.306 220.884 137.858 217.073 135.827C215.432 134.936 213.819 133.962 212.095 133.238C210.927 132.737 209.508 132.403 208.452 133.349C205.976 135.576 210.871 138.276 212.373 139.111C212.874 139.389 213.291 138.666 212.846 138.387Z" fill="#161616"/>
<path d="M212.178 138.526C208.785 140.057 205.503 141.783 202.361 143.759C200.775 144.733 199.246 145.791 197.744 146.876C196.77 147.572 195.268 148.379 194.768 149.548C194.49 150.189 194.573 151.051 195.157 151.525C196.131 152.276 197.41 151.33 198.272 150.884C201.693 149.075 205.17 147.377 208.702 145.847C209.203 145.624 208.758 144.9 208.285 145.123C205.643 146.292 203 147.517 200.414 148.825C199.218 149.437 197.883 150.495 196.576 150.801C195.936 150.968 195.491 150.801 195.547 150.105C195.574 149.632 195.825 149.381 196.186 149.075C196.798 148.519 197.493 148.073 198.161 147.572C202.667 144.288 207.506 141.505 212.596 139.222C213.096 139.027 212.679 138.304 212.178 138.526Z" fill="#161616"/>
<path d="M200.386 149.855C203.807 150.523 207.228 150.105 210.371 148.602C210.844 148.379 210.426 147.656 209.954 147.878C207.005 149.27 203.807 149.66 200.609 149.047C200.08 148.964 199.858 149.743 200.386 149.855Z" fill="#161616"/>
<path d="M202.249 150.3C204.613 151.886 207.422 152.36 210.204 151.692C210.732 151.552 210.51 150.745 209.981 150.884C207.422 151.525 204.864 151.051 202.667 149.576C202.222 149.298 201.804 150.022 202.249 150.3Z" fill="#161616"/>
<path d="M210.287 151.024C209.147 151.831 208.062 152.694 206.978 153.584C206.227 154.224 205.086 154.92 204.808 155.922C204.641 156.562 204.808 157.203 205.392 157.537C206.199 158.01 207.395 157.481 208.174 157.23C213.847 155.393 219.104 152.193 224.388 149.437C224.861 149.187 224.444 148.463 223.971 148.713C220.161 150.717 216.378 152.805 212.485 154.614C211.455 155.087 210.426 155.533 209.37 155.922C208.619 156.201 207.256 156.896 206.449 156.841C204.475 156.674 207.339 154.336 207.756 154.002C208.702 153.222 209.703 152.471 210.705 151.719C211.122 151.441 210.705 150.717 210.287 151.024Z" fill="#161616"/>
<path d="M247.806 47.3724C245.553 48.43 243.996 50.3784 242.577 52.1319C241.854 53.0225 239.824 55.6667 238.517 59.7025C238.127 60.9272 236.125 67.3289 238.294 74.7047C239.407 78.4622 241.02 80.4384 241.382 80.8837C242.856 82.665 244.469 83.7227 245.553 84.335C246.221 84.3907 247 84.3907 247.806 84.335C249.308 84.2237 250.587 83.9454 251.617 83.6392C252.006 84.5855 252.534 85.6432 253.23 86.7844C254.203 88.3709 255.232 89.5955 256.15 90.5419C257.541 89.8182 259.376 88.7049 261.351 87.0349C262.936 85.671 266.329 82.7207 268.61 77.5994C269.389 75.8459 271.336 70.8637 270.557 64.4064C270.334 62.6529 270.001 59.8695 268.387 56.9192C264.327 49.5712 254.203 44.3942 247.806 47.3724Z" fill="white"/>
<path opacity="0.12" d="M256.122 54.7482C256.845 56.3347 257.791 58.9788 257.93 62.3745C258.069 66.1598 257.123 68.971 256.595 70.474C253.953 78.0168 248.057 82.5815 245.526 84.335C246.527 84.4463 247.862 84.502 249.419 84.2793C251.477 83.9732 253.091 83.2495 254.12 82.6928C254.982 84.3907 255.844 86.0885 256.706 87.7585C256.678 88.5657 256.762 89.5677 257.012 90.6532C257.596 93.186 258.876 94.9395 259.71 95.8858C259.627 94.355 259.599 92.1562 259.988 89.5677C260.211 88.1203 260.989 83.5 263.965 78.2117C266.162 74.2872 267.08 74.3985 268.666 70.7245C270.446 66.6052 270.362 63.9888 270.307 63.2095C270.251 62.0683 270.084 59.5077 268.582 57.5037C266.329 54.3863 261.323 53.3565 256.122 54.7482Z" fill="#7A7A7A"/>
<path d="M237.961 61.5395C238.016 61.289 238.823 58.1438 240.186 55.6945C242.744 51.1855 247.556 48.8475 249.141 48.1238C249.586 49.9887 250.838 54.0245 254.398 57.782C258.125 61.7065 262.297 63.126 264.16 63.627C264.494 63.3487 265.523 62.5415 266.719 62.7642C268.443 63.0982 269.194 65.3805 269.222 66.8835C269.222 67.3567 269.194 68.8318 268.054 70.1122C266.524 71.81 264.383 71.6708 264.104 71.643C262.714 73.1738 260.823 75.5953 259.321 78.9353C257.652 82.665 255.705 87.0348 257.374 91.7943C258.737 95.6353 262.38 99.5042 267.108 100.117C273.978 101.007 279.957 94.6333 281.348 89.1223C282.071 86.2555 281.042 85.5875 279.234 75.651C277.872 68.136 278.317 67.7463 277.037 61.79C275.368 54.0245 274.478 50.1 271.892 47.5393C268.36 44.088 263.743 43.6705 258.903 43.253C253.202 42.752 245.748 42.084 240.575 47.261C237.571 50.267 235.597 54.9987 235.986 59.786C236.181 62.0127 236.82 63.794 237.377 64.963C237.432 64.128 237.599 62.9312 237.961 61.5395Z" fill="#5222D0"/>
<path d="M240.464 79.6034C239.518 79.6312 237.989 84.3629 239.129 89.1224C239.602 91.0429 240.519 94.9396 244.052 96.4982C247.306 97.9177 252.034 97.0271 253.869 93.7427C255.093 91.5161 254.509 89.1224 254.314 88.3709C253.424 86.7844 252.507 85.2257 251.617 83.6392C251.005 83.8619 250.282 84.1124 249.447 84.2516C247.695 84.5856 246.165 84.5021 245.053 84.3351C244.441 84.0289 243.579 83.5279 242.772 82.7207C241.076 81.0786 240.992 79.5756 240.464 79.6034Z" fill="#5222D0"/>
<path d="M242.272 51.8257C238.406 56.7243 236.459 62.959 236.876 69.1937C237.265 75.0108 239.685 81.7187 245.136 84.5577C245.609 84.8082 246.026 84.0845 245.554 83.834C240.241 81.0507 237.961 74.4263 237.683 68.7483C237.405 62.8755 239.212 57.0027 242.884 52.3823C243.19 52.0205 242.605 51.4082 242.272 51.8257Z" fill="#161616"/>
<path d="M245.554 84.7525C250.949 85.0586 256.206 82.9155 259.905 78.9631C260.266 78.5735 259.682 77.989 259.321 78.3786C255.789 82.1918 250.755 84.2236 245.581 83.9175C244.997 83.8896 245.025 84.7246 245.554 84.7525Z" fill="#161616"/>
<path d="M251.422 84.3072C252.312 86.1999 253.424 87.9534 254.759 89.5677C255.093 89.9852 255.677 89.4007 255.343 88.9832C254.036 87.4246 252.979 85.7267 252.145 83.8897C251.895 83.3887 251.199 83.8062 251.422 84.3072Z" fill="#161616"/>
<path d="M264.382 64.0167C265.189 63.4322 266.274 62.959 267.275 63.3209C268.61 63.794 268.86 65.4084 268.832 66.6052C268.777 69.1102 266.997 71.6987 264.216 71.2812C263.687 71.1977 263.465 72.0049 263.993 72.0884C267.497 72.6172 269.778 69.4164 269.639 66.1599C269.583 64.8517 269.166 63.3487 267.915 62.7085C266.607 62.0127 265.05 62.5137 263.937 63.3209C263.52 63.5992 263.937 64.3229 264.382 64.0167Z" fill="#161616"/>
<path d="M243.301 58.3109C242.383 63.9332 241.715 69.5834 241.243 75.2614C241.215 75.6789 241.827 75.8181 242.021 75.4841C242.967 73.8141 243.913 72.1162 244.858 70.4462C245.109 69.9731 244.413 69.5556 244.135 70.0287C243.19 71.6987 242.244 73.3966 241.298 75.0666C241.549 75.1501 241.827 75.2057 242.077 75.2892C242.522 69.6947 243.189 64.1281 244.107 58.5614C244.191 58.0047 243.384 57.7821 243.301 58.3109Z" fill="#161616"/>
<path d="M242.911 77.6551C245.804 78.9632 248.668 77.4881 250.226 74.9274C250.504 74.4542 249.781 74.0367 249.503 74.5099C248.223 76.6531 245.804 78.0726 243.328 76.9314C242.828 76.7087 242.411 77.4324 242.911 77.6551Z" fill="#161616"/>
<path d="M249.086 74.3429C249.559 74.4264 249.976 74.649 250.254 75.0665C250.56 75.5119 251.283 75.0944 250.977 74.649C250.588 74.0645 250.004 73.647 249.308 73.5357C248.78 73.4522 248.557 74.2594 249.086 74.3429Z" fill="#161616"/>
<path d="M240.436 65.5754C240.666 65.5754 240.853 64.7405 240.853 63.7105C240.853 62.6806 240.666 61.8457 240.436 61.8457C240.206 61.8457 240.019 62.6806 240.019 63.7105C240.019 64.7405 240.206 65.5754 240.436 65.5754Z" fill="#161616"/>
<path d="M248.223 64.7403C248.454 64.7403 248.641 63.9054 248.641 62.8755C248.641 61.8455 248.454 61.0106 248.223 61.0106C247.993 61.0106 247.806 61.8455 247.806 62.8755C247.806 63.9054 247.993 64.7403 248.223 64.7403Z" fill="#161616"/>
<path d="M239.073 59.2015C239.435 58.3944 240.464 57.3367 241.326 58.2552C241.688 58.6449 242.272 58.0604 241.91 57.6707C240.686 56.3347 238.962 57.4759 238.35 58.784C238.128 59.285 238.851 59.7025 239.073 59.2015Z" fill="#161616"/>
<path d="M246.972 57.615C247.445 56.1955 249.086 56.613 249.892 57.4201C250.254 57.8098 250.866 57.2253 250.476 56.8356C249.197 55.5275 246.805 55.3605 246.165 57.3923C245.999 57.9211 246.805 58.1438 246.972 57.615Z" fill="#161616"/>
<path d="M249.67 67.635C250.198 67.635 250.198 66.8 249.67 66.8C249.141 66.8 249.141 67.635 249.67 67.635Z" fill="#161616"/>
<path d="M252.451 66.5773C252.979 66.5773 252.979 65.7423 252.451 65.7423C251.895 65.7423 251.895 66.5773 252.451 66.5773Z" fill="#161616"/>
<path d="M251.839 68.6648C252.367 68.6648 252.367 67.8298 251.839 67.8298C251.283 67.8298 251.283 68.6648 251.839 68.6648Z" fill="#161616"/>
</svg>
