<svg width="360" height="334" viewBox="0 0 360 334" fill="none" xmlns="http://www.w3.org/2000/svg">
<path d="M61.7129 279.836C88.4963 279.836 115.308 279.836 142.091 279.836C149.656 279.836 157.249 279.836 164.814 279.836C165.342 279.836 165.342 279.001 164.814 279.001C138.03 279.001 111.219 279.001 84.4357 279.001C76.8707 279.001 69.2779 279.001 61.7129 279.001C61.1844 279.001 61.1844 279.836 61.7129 279.836Z" fill="#E8E8E8"/>
<path d="M170.209 279.836C197.577 279.836 224.917 279.836 252.284 279.836C260.044 279.836 267.804 279.836 275.563 279.836C276.092 279.836 276.092 279.001 275.563 279.001C248.196 279.001 220.856 279.001 193.489 279.001C185.729 279.001 177.969 279.001 170.209 279.001C169.681 279.001 169.681 279.836 170.209 279.836Z" fill="#E8E8E8"/>
<path d="M190.04 287.491C211.511 287.491 232.954 287.491 254.426 287.491C254.954 287.491 254.954 286.656 254.426 286.656C232.954 286.656 211.511 286.656 190.04 286.656C189.483 286.656 189.483 287.491 190.04 287.491Z" fill="#E8E8E8"/>
<path d="M123.846 289.3C136.306 289.3 148.766 289.3 161.226 289.3C161.754 289.3 161.754 288.465 161.226 288.465C148.766 288.465 136.306 288.465 123.846 288.465C123.317 288.465 123.317 289.3 123.846 289.3Z" fill="#E8E8E8"/>
<path d="M289.97 279.391C299.871 279.391 309.773 279.391 319.674 279.391C320.202 279.391 320.202 278.556 319.674 278.556C309.773 278.556 299.871 278.556 289.97 278.556C289.442 278.556 289.442 279.391 289.97 279.391Z" fill="#E8E8E8"/>
<path d="M73.4219 226.758C76.9819 232.965 77.7328 240.452 75.5078 247.244C75.4244 247.466 75.5912 247.689 75.7859 247.745C76.6203 248.023 77.4825 248.385 78.0666 249.025C78.8175 249.86 78.9844 251.53 77.705 252.031C77.4547 252.142 77.2322 252.504 77.5103 252.727C79.6797 254.425 79.93 257.264 80.0969 259.824C80.2637 262.357 80.5141 264.862 81.1259 267.311C82.3219 272.043 84.6581 276.441 88.5797 279.419C88.9969 279.753 89.4141 279.029 88.9969 278.695C84.6581 275.411 82.4331 270.262 81.4875 265.029C80.7366 260.965 81.7378 255.009 78.0666 252.142C78.0109 252.365 77.9553 252.615 77.8719 252.838C79.04 252.365 79.6241 251.168 79.3737 249.916C79.04 248.273 77.3991 247.411 75.925 246.937C76.0084 247.104 76.1197 247.271 76.2031 247.438C78.5116 240.424 77.705 232.687 74.0338 226.313C73.8669 225.868 73.1438 226.285 73.4219 226.758Z" fill="#E8E8E8"/>
<path d="M73.6722 226.09C79.346 229.569 83.8794 234.468 87.6063 239.923C89.4141 242.54 91.055 245.295 92.5847 248.079C93.8641 250.417 96.7844 254.592 94.3647 257.069C94.1422 257.291 94.2534 257.681 94.5594 257.765C96.4506 258.266 97.2294 260.409 97.9247 262.051C98.6478 263.777 99.2319 265.558 99.6769 267.367C100.622 271.125 101.012 274.993 100.845 278.862C100.817 279.391 101.652 279.391 101.679 278.862C101.846 274.409 101.346 269.956 100.066 265.669C99.4822 263.721 98.7869 261.8 97.8969 259.991C97.2294 258.627 96.3116 257.375 94.7819 256.957C94.8375 257.18 94.8931 257.431 94.9766 257.653C97.0347 255.566 95.8944 252.504 94.7263 250.25C93.0297 246.937 91.1663 243.709 89.1081 240.619C85.131 234.607 80.2916 229.152 74.0894 225.367C73.6444 225.088 73.2272 225.812 73.6722 226.09Z" fill="#E8E8E8"/>
<path d="M74.0615 226.341C86.744 241.065 94.8097 259.518 96.979 278.834C97.0347 279.363 97.869 279.363 97.8134 278.834C96.089 263.61 90.7768 248.83 82.3775 236.027C80.0134 232.436 77.4268 229.013 74.6178 225.756C74.284 225.339 73.7 225.951 74.0615 226.341Z" fill="#E8E8E8"/>
<path d="M76.4535 246.102C83.4344 249.136 89.3028 254.23 93.28 260.715C93.5582 261.16 94.2813 260.743 94.0032 260.297C89.9704 253.701 83.9907 248.468 76.8707 245.379C76.3978 245.184 75.9807 245.88 76.4535 246.102Z" fill="#E8E8E8"/>
<path d="M87.4394 239.283C87.6619 242.233 87.9957 245.128 88.5241 248.051C88.6075 248.579 89.4141 248.357 89.3307 247.828C88.83 244.989 88.4963 242.15 88.2738 239.283C88.2182 238.754 87.3838 238.754 87.4394 239.283Z" fill="#E8E8E8"/>
<path d="M80.2082 261.411C86.6328 264.305 92.251 268.787 96.4785 274.437C96.7844 274.854 97.5075 274.437 97.2016 274.019C92.8907 268.258 87.2169 263.665 80.6254 260.687C80.1525 260.492 79.7354 261.188 80.2082 261.411Z" fill="#E8E8E8"/>
<path d="M91.3054 244.015C91.2219 237.168 92.3066 230.377 94.476 223.891C94.2813 223.975 94.0588 224.058 93.8641 224.142C94.3647 224.392 94.8375 224.643 95.3382 224.866C95.6163 225.005 95.95 224.838 95.9779 224.504C96.0891 220.273 97.3129 216.237 99.5935 212.675C99.3432 212.647 99.0929 212.619 98.8425 212.563C100.734 217.963 102.625 223.335 104.516 228.734C105.434 231.351 106.352 233.939 107.27 236.556C107.965 238.532 110.83 244.182 107.186 244.794C106.853 244.85 106.797 245.295 106.992 245.49C108.911 247.55 109.634 250.305 109.995 253.033C110.357 255.844 110.413 258.683 110.301 261.494C110.051 267.395 108.827 273.184 106.713 278.695C106.519 279.196 107.325 279.419 107.52 278.918C109.773 273.045 111.024 266.783 111.163 260.492C111.275 255.399 111.303 248.886 107.576 244.933C107.52 245.156 107.464 245.407 107.381 245.629C109.523 245.267 110.051 242.985 109.662 241.12C108.966 237.919 107.492 234.746 106.408 231.657C104.155 225.227 101.874 218.798 99.6213 212.341C99.5101 212.007 99.065 211.923 98.8704 212.229C96.5063 215.903 95.2269 220.106 95.1435 224.476C95.366 224.365 95.5607 224.225 95.7832 224.114C95.2825 223.864 94.8097 223.613 94.3091 223.39C94.0588 223.251 93.7807 223.363 93.6972 223.641C91.5 230.21 90.4154 237.057 90.4988 243.987C90.471 244.544 91.3054 244.544 91.3054 244.015Z" fill="#E8E8E8"/>
<path d="M98.036 213.426C102.403 235.108 99.4266 257.403 103.014 279.168C103.098 279.697 103.904 279.475 103.821 278.946C100.261 257.18 103.237 234.858 98.8426 213.203C98.7313 212.675 97.9248 212.897 98.036 213.426Z" fill="#E8E8E8"/>
<path d="M91.7504 231.156C93.3913 239.116 97.0347 246.409 100.65 253.645C100.901 254.118 101.624 253.701 101.373 253.228C97.7857 246.075 94.1979 238.838 92.5569 230.961C92.4457 230.404 91.6391 230.627 91.7504 231.156Z" fill="#E8E8E8"/>
<path d="M105.712 231.267C103.682 235.108 102.041 239.144 100.762 243.291C100.595 243.792 101.401 244.015 101.568 243.514C102.82 239.422 104.461 235.47 106.435 231.685C106.686 231.212 105.963 230.794 105.712 231.267Z" fill="#E8E8E8"/>
<path d="M228.81 278.695C229.617 271.709 230.423 264.723 231.23 257.737C231.091 257.876 230.952 258.015 230.813 258.154C231.647 258.099 232.287 258.266 232.982 258.794C233.26 259.017 233.677 258.878 233.705 258.488C233.789 256.957 233.844 255.454 233.928 253.924C233.761 254.063 233.566 254.202 233.399 254.313C235.43 254.675 236.514 252.782 237.265 251.224C238.406 248.83 239.852 246.743 241.521 244.711C244.552 241.037 248.001 237.446 249.141 232.659C248.863 232.659 248.613 232.659 248.335 232.659C249.892 237.585 251.505 242.595 251.756 247.8C251.95 251.808 251.505 257.625 247.111 259.351C246.861 259.462 246.721 259.713 246.861 259.963C249.28 264.472 242.967 267.534 240.213 269.761C237.126 272.266 234.595 275.383 232.704 278.862C232.454 279.335 233.177 279.753 233.427 279.28C235.847 274.854 239.212 271.375 243.328 268.508C246.165 266.532 249.586 263.303 247.584 259.546C247.5 259.741 247.417 259.963 247.333 260.158C251.394 258.544 252.506 253.84 252.618 249.888C252.757 243.904 250.921 238.086 249.141 232.436C249.03 232.047 248.446 232.019 248.335 232.436C247.306 236.806 244.246 240.146 241.437 243.486C240.13 245.045 238.851 246.631 237.794 248.357C236.931 249.804 235.791 253.896 233.594 253.506C233.316 253.45 233.093 253.617 233.066 253.896C232.982 255.427 232.926 256.93 232.843 258.46C233.093 258.349 233.316 258.266 233.566 258.154C232.732 257.486 231.87 257.208 230.785 257.264C230.535 257.291 230.396 257.431 230.368 257.681C229.561 264.667 228.755 271.653 227.948 278.64C227.92 279.224 228.755 279.224 228.81 278.695Z" fill="#E8E8E8"/>
<path d="M248.307 233.772C247.834 241.677 246.36 249.721 242.133 256.54C240.074 259.88 237.349 262.802 235.152 266.059C233.038 269.176 231.453 272.6 230.34 276.19C230.173 276.691 230.98 276.914 231.147 276.413C232.37 272.488 234.178 268.814 236.57 265.474C238.906 262.218 241.604 259.24 243.579 255.733C247.306 249.053 248.668 241.343 249.113 233.772C249.169 233.243 248.335 233.243 248.307 233.772Z" fill="#E8E8E8"/>
<path d="M239.101 247.104C239.157 251.001 239.741 254.842 240.881 258.572C241.048 259.073 241.854 258.878 241.687 258.349C240.575 254.703 239.991 250.945 239.935 247.104C239.907 246.576 239.073 246.548 239.101 247.104Z" fill="#E8E8E8"/>
<path d="M246.193 249.832C248.39 248.802 250.337 247.383 252.006 245.629C252.368 245.24 251.784 244.655 251.422 245.045C249.781 246.743 247.918 248.106 245.776 249.108C245.275 249.331 245.72 250.055 246.193 249.832Z" fill="#E8E8E8"/>
<path d="M243.162 278.918C242.911 275.856 242.577 272.795 242.188 269.761C242.132 269.232 241.27 269.232 241.354 269.761C241.743 272.795 242.077 275.856 242.327 278.918C242.355 279.447 243.189 279.447 243.162 278.918Z" fill="#E8E8E8"/>
<path d="M252.785 244.627C255.816 238.894 258.403 232.909 260.517 226.758C260.238 226.758 259.988 226.758 259.71 226.758C261.295 233.243 262.853 239.729 264.438 246.214C264.522 246.047 264.633 245.88 264.716 245.713C263.604 246.047 262.491 246.381 261.379 246.715C261.184 246.77 261.073 246.937 261.073 247.104C261.017 247.772 261.379 248.162 261.879 248.552C263.047 249.526 263.353 250.305 263.27 251.836C263.187 253.228 263.048 254.592 262.936 255.955C262.853 257.013 262.908 259.741 261.267 259.657C261.017 259.657 260.767 259.936 260.878 260.186C262.13 263.665 260.739 267.256 259.098 270.345C257.485 273.379 255.51 276.19 253.23 278.779C252.868 279.168 253.452 279.781 253.814 279.363C256.345 276.496 258.542 273.323 260.266 269.9C261.796 266.838 262.908 263.331 261.712 259.963C261.573 260.13 261.434 260.325 261.323 260.492C263.938 260.631 263.771 256.596 263.91 254.926C264.021 253.395 264.355 251.725 264.104 250.194C264.021 249.693 263.854 249.22 263.548 248.83C263.131 248.301 261.935 247.828 261.991 247.104C261.879 247.244 261.796 247.383 261.685 247.494C262.797 247.16 263.91 246.826 265.022 246.492C265.245 246.436 265.356 246.214 265.3 245.991C263.715 239.506 262.157 233.021 260.572 226.536C260.461 226.118 259.905 226.174 259.766 226.536C257.68 232.631 255.149 238.504 252.117 244.21C251.811 244.683 252.534 245.1 252.785 244.627Z" fill="#E8E8E8"/>
<path d="M259.432 228.567C262.046 245.24 250.365 259.574 247.361 275.327C247.25 275.856 248.057 276.079 248.168 275.55C251.199 259.602 262.881 245.24 260.238 228.345C260.155 227.816 259.348 228.039 259.432 228.567Z" fill="#E8E8E8"/>
<path d="M253.758 240.563C254.398 243.876 255.01 247.188 255.649 250.528C255.761 251.057 256.567 250.834 256.456 250.305C255.816 246.993 255.204 243.681 254.565 240.341C254.454 239.812 253.675 240.035 253.758 240.563Z" fill="#E8E8E8"/>
<path d="M258.82 244.822C260.099 242.957 261.545 241.232 263.131 239.617C263.52 239.228 262.908 238.643 262.547 239.033C260.906 240.675 259.432 242.484 258.097 244.405C257.791 244.85 258.514 245.267 258.82 244.822Z" fill="#E8E8E8"/>
<path d="M34.3453 200.957C54.8153 196.448 76.2866 196.977 96.5063 202.543C106.825 205.382 116.559 209.808 126.516 213.704C136.334 217.545 146.374 220.746 156.609 223.307C168.04 226.174 179.666 228.233 191.402 229.486C191.931 229.541 191.931 228.706 191.402 228.651C170.154 226.368 149.183 221.386 129.186 213.816C119.09 210.003 109.3 205.41 98.9538 202.348C89.1359 199.454 78.9566 197.756 68.7216 197.255C57.1238 196.67 45.4703 197.672 34.1506 200.15C33.6222 200.261 33.8447 201.068 34.3453 200.957Z" fill="#E8E8E8"/>
<path d="M145.595 213.343C167.512 218.742 190.29 216.488 212.178 212.09C234.734 207.553 256.79 200.623 279.54 197.06C292.445 195.028 305.573 194.165 318.617 195.474C319.145 195.529 319.145 194.694 318.617 194.639C295.811 192.356 273.116 196.782 251.033 202.07C228.783 207.414 206.644 213.704 183.726 215.347C171.016 216.237 158.222 215.625 145.818 212.563C145.289 212.396 145.067 213.203 145.595 213.343Z" fill="#E8E8E8"/>
<path d="M79.3737 177.437C92.5568 174.793 105.629 179.08 118.283 182.308C131.105 185.593 144.149 187.096 157.36 185.787C170.487 184.479 183.17 180.75 196.019 177.911C209.286 174.96 222.775 172.928 236.32 171.871C251.338 170.674 266.441 170.674 281.487 171.815C282.016 171.843 282.016 171.008 281.487 170.98C254.787 168.976 227.837 170.618 201.582 175.907C188.371 178.579 175.41 182.531 162.032 184.424C148.377 186.344 134.665 185.509 121.287 182.253C107.52 178.885 93.4468 173.791 79.1234 176.658C78.6228 176.714 78.8453 177.521 79.3737 177.437Z" fill="#E8E8E8"/>
<path d="M218.019 160.292C232.871 161.823 247.556 158.539 261.935 155.227C269.277 153.529 276.648 151.831 284.101 150.718C291.806 149.576 299.621 149.159 307.408 149.521C316.197 149.938 324.902 151.302 333.413 153.612C333.941 153.751 334.164 152.944 333.635 152.805C318.756 148.769 303.153 147.572 287.856 149.382C272.921 151.135 258.514 155.672 243.718 158.177C235.235 159.624 226.641 160.32 218.047 159.429C217.491 159.402 217.491 160.237 218.019 160.292Z" fill="#E8E8E8"/>
<path d="M38.7118 161.322C49.9203 163.27 60.9618 159.346 72.1146 158.734C83.8793 158.066 95.5884 159.986 107.131 161.907C107.659 161.99 107.881 161.183 107.353 161.099C96.0612 159.235 84.6581 157.37 73.1715 157.843C61.7684 158.316 50.3653 162.519 38.9065 160.515C38.4059 160.431 38.1834 161.239 38.7118 161.322Z" fill="#E8E8E8"/>
<path d="M90.6657 318.97C103.96 318.97 117.254 318.97 130.577 318.97C131.105 318.97 131.105 318.135 130.577 318.135C117.282 318.135 103.988 318.135 90.6657 318.135C90.1372 318.135 90.1372 318.97 90.6657 318.97Z" fill="#161616"/>
<path d="M121.621 324.258C133.97 324.258 146.318 324.258 158.667 324.258C159.196 324.258 159.196 323.423 158.667 323.423C146.318 323.423 133.97 323.423 121.621 323.423C121.092 323.423 121.092 324.258 121.621 324.258Z" fill="#161616"/>
<path d="M58.5144 317.745C51.5891 317.745 44.6637 317.745 37.7384 317.745C37.21 317.745 37.21 318.58 37.7384 318.58C44.6637 318.58 51.5891 318.58 58.5144 318.58C59.0428 318.58 59.0428 317.745 58.5144 317.745Z" fill="#161616"/>
<path d="M150.129 303.495C171.85 303.495 193.572 303.495 215.266 303.495C215.794 303.495 215.794 302.66 215.266 302.66C193.544 302.66 171.823 302.66 150.129 302.66C149.6 302.66 149.573 303.495 150.129 303.495Z" fill="#161616"/>
<path d="M254.37 297.371C262.519 297.371 270.668 297.371 278.789 297.371C279.318 297.371 279.318 296.536 278.789 296.536C270.64 296.536 262.491 296.536 254.37 296.536C253.814 296.536 253.814 297.371 254.37 297.371Z" fill="#161616"/>
<path d="M296.701 300.238C309.188 300.238 321.676 300.238 334.164 300.238C334.693 300.238 334.693 299.403 334.164 299.403C321.676 299.403 309.188 299.403 296.701 299.403C296.172 299.403 296.172 300.238 296.701 300.238Z" fill="#161616"/>
<path d="M44.9142 315.63C58.6813 315.63 72.4485 315.63 86.2157 315.63C86.7441 315.63 86.7441 314.795 86.2157 314.795C72.4485 314.795 58.6813 314.795 44.9142 314.795C44.3857 314.795 44.3857 315.63 44.9142 315.63Z" fill="#161616"/>
<path d="M136.473 253.255C135.666 259.435 134.86 265.614 134.053 271.82C118.562 275.216 110.885 277.554 111.052 278.862C111.275 280.449 122.872 280.504 145.901 279.057C146.902 270.763 147.876 262.468 148.877 254.202C144.733 253.896 140.617 253.562 136.473 253.255Z" fill="#161616"/>
<path d="M170.126 146.014C170.404 148.714 170.682 153.195 170.182 158.706C169.431 166.944 167.317 172.929 166.594 175.072C160.67 192.44 157.805 215.235 156.47 226.035C155.524 233.689 154.468 245.128 154.718 259.379C153.16 260.242 147.987 262.886 141.201 261.8C134.915 260.798 130.994 257.263 129.659 255.955C128.963 234.551 130.771 217.406 132.663 205.41C134.665 192.551 137.53 179.525 140.812 166.388C142.758 158.539 144.705 150.718 146.68 142.869C154.468 143.898 162.311 144.956 170.126 146.014Z" fill="#3567E9"/>
<path opacity="0.13" d="M169.848 154.391C168.93 158.038 167.456 163.493 165.453 170.006C158.834 191.326 152.882 202.404 148.404 214.261C144.399 224.838 139.949 240.369 138.67 261.077C140.144 261.55 142.23 262.023 144.733 261.995C149.322 261.94 152.771 260.242 154.467 259.24C154.662 245.546 155.552 234.051 156.498 225.283C157.249 218.213 158 211.311 159.807 202.154C161.977 191.131 163.062 185.62 165.314 179.191C166.844 174.905 168.68 170.535 169.542 163.771C169.959 159.875 169.931 156.618 169.848 154.391Z" fill="#3F3F3F"/>
<path opacity="0.19" d="M159.029 205.995C156.998 210.977 155.051 216.182 153.16 221.609C148.21 235.832 144.511 249.387 141.785 261.995C143.259 262.134 145.122 262.162 147.292 261.8C150.518 261.271 153.021 260.13 154.634 259.24C154.495 253.701 154.551 247.884 154.829 241.788C155.385 228.623 156.971 216.627 159.029 205.995Z" fill="#3F3F3F"/>
<path d="M187.453 251.975C188.871 256.623 190.29 261.244 191.708 265.892C180.611 273.741 175.41 278.333 176.133 279.614C177.051 281.256 187.37 277.665 207.089 268.842C204.252 260.937 201.415 253.005 198.55 245.1C194.879 247.383 191.152 249.665 187.453 251.975Z" fill="#161616"/>
<path d="M181.307 140.169C182.475 142.618 184.283 146.737 185.701 152.081C187.815 160.069 187.842 166.415 187.898 168.67C188.232 187.04 193.322 209.446 195.713 220.022C197.41 227.565 200.33 238.643 205.42 251.975C204.252 253.311 200.275 257.542 193.516 258.878C187.258 260.102 182.363 258.098 180.695 257.319C172.768 237.418 168.624 220.69 166.288 208.778C163.785 196.002 162.06 182.781 160.642 169.31C159.807 161.266 158.973 153.222 158.139 145.206C165.871 143.509 173.603 141.839 181.307 140.169Z" fill="#3567E9"/>
<path opacity="0.17" d="M167.261 143.369C171.016 159.095 174.743 174.821 178.442 190.547C183.782 213.231 189.038 235.943 194.212 258.655C195.463 258.405 196.993 257.959 198.606 257.18C201.86 255.621 204.002 253.478 205.198 252.031C203.278 246.937 200.942 240.202 198.606 232.213C194.073 216.766 191.931 204.519 191.097 199.342C189.567 189.935 188.649 184.284 188.343 176.213C188.148 170.757 188.399 168.058 187.62 162.435C187.286 160.042 186.313 154.057 183.754 146.654C182.808 143.926 181.891 141.672 181.195 140.057C176.578 141.171 171.934 142.284 167.261 143.369Z" fill="#3F3F3F"/>
<path opacity="0.15" d="M187.259 170.563C187.175 191.354 188.816 214.539 193.488 239.422C194.657 245.629 195.936 251.613 197.354 257.403C198.189 257.152 199.134 256.818 200.108 256.289C202.583 255.009 204.252 253.311 205.253 252.059C202.388 244.015 199.635 235.386 197.188 226.174C191.764 205.911 188.788 187.123 187.259 170.563Z" fill="#3F3F3F"/>
<path d="M149.934 82.0247C146.068 85.1421 144.372 89.0109 143.37 91.3211C140.227 98.5299 140.895 105.126 141.284 108.633C142.286 117.624 145.373 119.099 146.902 127.56C147.709 132.097 148.015 138.081 146.263 145.54C147.459 146.598 156.665 154.475 168.874 152.109C176.078 150.717 180.695 146.459 182.502 144.566C183.142 126.614 182.113 111.806 180.889 100.924C179.471 88.2594 177.997 82.8319 173.352 79.6867C166.844 75.2891 156.331 76.8756 149.934 82.0247Z" fill="white" stroke="black" stroke-width="2" stroke-miterlimit="10"/>
<path opacity="0.14" d="M163.062 76.7365C164.814 80.2435 166.955 85.1421 168.735 91.2376C173.241 106.685 172.323 119.461 171.85 123.914C170.571 136.439 166.705 146.236 163.59 152.554C165.537 152.61 168.068 152.443 170.932 151.636C176.745 149.994 180.528 146.542 182.308 144.65C182.558 135.047 182.475 126.976 182.308 120.964C182.308 120.964 182.085 112.14 180.472 97.6393C179.36 87.5636 178.581 84.2793 175.883 81.4681C171.934 77.4045 166.204 76.7921 163.062 76.7365Z" fill="#3F3F3F"/>
<path opacity="0.17" d="M179.026 89.9573C178.553 89.9851 179.137 97.0826 178.47 110.331C177.608 127.477 175.633 134.518 174.993 136.773C173.102 143.23 170.682 148.24 168.93 151.469C170.432 151.358 172.434 151.051 174.604 150.189C178.72 148.546 181.279 145.819 182.503 144.316C182.669 138.777 182.753 130.65 182.308 120.824C181.585 104.904 179.693 89.9016 179.026 89.9573Z" fill="#3F3F3F"/>
<path d="M168.958 124.22C168.708 124.916 168.596 125.612 168.624 126.336C168.624 126.558 168.819 126.753 169.041 126.753C169.959 126.753 170.877 126.642 171.795 126.475C172.323 126.363 172.101 125.584 171.572 125.667C170.738 125.834 169.903 125.89 169.041 125.918C169.18 126.057 169.319 126.196 169.458 126.336C169.431 125.667 169.514 125.055 169.737 124.443C169.959 123.942 169.153 123.719 168.958 124.22Z" fill="black"/>
<path d="M166.788 124.109C166.204 124.443 165.759 125.166 165.815 125.779C165.954 127.087 168.485 127.699 168.401 127.978C168.318 128.228 166.51 127.449 164.591 128.145C164.285 128.256 163.284 128.618 163.2 129.258C163.145 129.759 163.701 129.898 163.84 130.705C163.951 131.262 163.701 131.318 163.673 132.32C163.645 132.988 163.645 133.405 163.896 133.823C164.23 134.351 164.619 134.24 164.925 134.741C165.286 135.326 164.814 135.687 165.092 136.411C165.37 137.163 166.176 137.636 166.816 137.803C167.539 137.998 167.929 137.747 168.151 138.025C168.485 138.443 167.706 139.167 167.984 139.862C168.235 140.475 169.152 140.642 169.486 140.67C171.795 140.837 173.825 135.548 173.936 135.242C174.798 135.242 175.827 135.159 176.94 134.88C179.526 134.212 181.167 132.737 183.17 130.956C184.199 130.037 185.478 128.868 186.813 127.031C188.621 124.526 189.428 122.3 190.151 120.323C190.763 118.598 191.653 115.981 191.931 112.474C192.181 108.856 191.625 106.156 191.124 103.79C189.873 97.9455 187.62 93.9932 187.091 93.1025C187.008 92.9633 185.339 90.7923 182.002 86.4503C180.305 84.2515 178.776 82.331 176.968 82.4145C176.773 82.4145 176.411 82.4423 175.994 82.6928C174.687 83.4443 174.576 85.6153 174.659 87.6193C174.965 94.522 177.385 99.532 177.385 99.532C179.36 103.596 180.945 104.653 181.668 108.439C182.057 110.415 182.057 112.252 182.03 112.614C182.03 114.033 181.974 115.926 181.223 118.208C180.806 119.405 179.888 122.105 177.301 124.276C175.744 125.584 174.631 126.53 173.213 126.363C171.238 126.141 169.597 123.914 167.678 123.886C167.456 123.886 167.122 123.914 166.788 124.109Z" fill="white"/>
<path d="M175.911 82.4423C182.92 86.7843 188.148 93.7705 190.29 101.759C192.682 110.693 191.069 119.934 185.729 127.477C183.086 131.206 179.221 134.825 174.353 134.63C173.825 134.602 173.825 135.437 174.353 135.465C178.497 135.632 181.974 133.21 184.616 130.232C187.62 126.836 189.956 122.634 191.18 118.264C193.683 109.274 191.736 99.2815 186.563 91.5716C183.893 87.6193 180.416 84.2515 176.356 81.7465C175.855 81.4403 175.438 82.164 175.911 82.4423Z" fill="black"/>
<path d="M180.973 117.846C179.471 121.437 177.107 125.194 172.963 125.89C172.434 125.974 172.657 126.781 173.185 126.697C177.607 125.946 180.138 121.91 181.751 118.069C181.974 117.596 181.167 117.373 180.973 117.846Z" fill="black"/>
<path d="M173.13 125.834C171.238 125.5 167.957 122.077 166.037 123.97C165.342 124.665 165.426 125.834 165.843 126.642C166.455 127.838 167.79 128.256 168.986 128.562C169.514 128.701 169.737 127.894 169.208 127.755C168.151 127.504 166.872 127.17 166.482 126.001C166.26 125.584 166.343 125.194 166.705 124.888C166.872 124.304 167.261 124.109 167.873 124.359C168.318 124.443 168.735 124.638 169.125 124.832C170.404 125.473 171.461 126.391 172.907 126.642C173.436 126.753 173.658 125.946 173.13 125.834Z" fill="black"/>
<path d="M173.908 134.797C172.991 136.133 172.101 137.497 171.183 138.833C170.96 139.139 170.766 139.445 170.487 139.723C170.237 140.03 169.903 140.252 169.514 140.391C169.125 139.807 168.763 139.222 168.374 138.638C168.541 138.137 169.709 137.469 170.098 137.107C170.515 136.745 169.903 136.161 169.514 136.523C168.707 137.246 167.233 138.053 167.178 139.278C167.15 140.224 167.873 141.115 168.791 141.254C169.931 141.421 170.849 140.642 171.489 139.807C172.629 138.36 173.575 136.745 174.632 135.214C174.937 134.769 174.214 134.352 173.908 134.797Z" fill="black"/>
<path d="M169.013 127.727C167.4 128.2 165.759 127.811 164.146 128.089C163.312 128.228 162.589 128.673 162.672 129.62C162.95 132.292 166.621 131.874 168.374 131.485C168.902 131.373 168.68 130.566 168.151 130.677C167.345 130.872 166.51 131.039 165.676 130.984C164.619 130.9 162.338 129.564 164.536 128.868C165.286 128.646 166.288 128.84 167.039 128.813C167.79 128.813 168.513 128.729 169.236 128.506C169.764 128.367 169.542 127.56 169.013 127.727Z" fill="black"/>
<path d="M164.091 130.817C162.867 131.679 162.756 133.6 163.924 134.574C165.314 135.715 167.428 134.992 168.847 134.296C169.319 134.045 168.902 133.322 168.429 133.572C167.512 134.045 166.288 134.518 165.231 134.268C164.035 134.017 163.395 132.32 164.536 131.54C164.953 131.234 164.536 130.51 164.091 130.817Z" fill="black"/>
<path d="M164.591 134.797C164.23 135.882 164.702 137.163 165.648 137.831C166.844 138.666 168.346 138.248 169.43 137.413C169.848 137.079 169.43 136.355 169.013 136.689C168.235 137.274 167.178 137.775 166.26 137.218C165.509 136.773 165.147 135.827 165.426 135.019C165.565 134.518 164.758 134.296 164.591 134.797Z" fill="black"/>
<path d="M176.356 81.3011C172.796 86.3668 174.02 92.8519 176.3 98.1403C179.165 104.792 184.004 111.472 182.53 119.099C182.419 119.628 183.226 119.85 183.337 119.321C184.616 112.669 181.307 106.602 178.47 100.84C175.605 95.0229 172.907 87.6471 177.079 81.7186C177.385 81.2733 176.662 80.8558 176.356 81.3011Z" fill="black"/>
<path d="M181.751 109.942C181.612 112.92 181.251 115.87 180.667 118.793C180.556 119.321 181.362 119.544 181.473 119.015C182.057 116.009 182.447 113.003 182.586 109.942C182.614 109.413 181.779 109.413 181.751 109.942Z" fill="black"/>
<path opacity="0.12" d="M181.223 86.0327C182.614 88.7325 184.282 92.657 185.339 97.6114C186.73 104.18 186.341 109.441 186.09 111.806C185.506 117.262 185.006 121.966 181.473 126.614C179.999 128.59 176.995 132.542 172.017 133.85C168.624 134.713 165.203 134.129 164.786 135.465C164.591 136.161 165.231 137.051 165.898 137.469C166.788 137.998 167.984 137.914 169.013 137.218C168.012 137.914 167.539 138.888 167.762 139.584C167.956 140.196 168.652 140.53 169.125 140.586C171.405 140.892 173.686 135.632 173.853 135.242C174.743 135.27 176.078 135.214 177.58 134.741C180.695 133.795 182.586 131.707 184.672 129.397C185.534 128.451 187.091 126.669 188.538 124.053C192.237 117.29 191.931 110.498 191.764 107.993C191.291 99.7545 187.815 94.0765 186.897 92.6849C185.006 89.5675 182.836 87.4244 181.223 86.0327Z" fill="#3F3F3F"/>
<path opacity="0.11" d="M191.931 109.802C190.93 112.92 189.372 116.677 186.952 120.63C182.753 127.504 177.719 132.013 174.131 134.713C175.049 134.769 176.439 134.741 177.997 134.351C183.281 132.96 186.09 128.339 187.203 126.502C188.649 124.109 189.205 122.105 190.179 118.653C191.208 115.035 191.681 111.946 191.931 109.802Z" fill="#3F3F3F"/>
<path d="M147.848 83.5001C147.403 82.9713 143.76 85.3371 141.284 87.2019C138.281 89.4564 135.694 91.4048 133.219 94.9396C129.937 99.6156 128.936 104.152 128.602 106.017C128.352 107.465 127.573 112.53 129.297 118.709C130.743 123.914 133.191 127.059 136.222 130.956C138.169 133.489 139.671 134.88 141.757 135.799C143.676 136.662 145.428 136.829 146.597 136.829C147.208 137.719 147.904 138.721 148.682 139.835C149.35 140.781 149.739 141.31 150.407 141.922C151.047 142.507 152.048 143.37 152.827 143.063C153.244 142.924 153.466 142.479 153.856 141.783C154.245 141.059 154.162 140.92 154.44 140.642C155.024 140.03 155.636 140.419 156.414 139.946C157.193 139.445 156.832 138.777 157.805 137.413C158.556 136.356 158.973 136.439 159.196 135.688C159.418 134.853 158.917 134.574 159.084 133.489C159.251 132.403 159.863 132.041 159.668 131.652C159.446 131.234 158.584 131.401 157.36 131.429C155.135 131.457 153.216 130.9 153.216 130.622C153.216 130.316 155.191 130.594 156.22 129.342C156.804 128.618 157.054 127.393 156.553 126.809C155.969 126.085 154.44 126.447 152.521 126.92C149.934 127.56 149.795 128.089 148.71 128.2C145.373 128.507 142.369 123.719 141.34 122.077C140.784 121.214 139.059 118.292 138.447 114.117C137.836 109.914 138.642 106.435 139.254 103.846C139.421 103.095 139.365 103.457 140.533 99.4486C142.592 92.3232 142.452 92.3511 142.953 91.1264C145.011 86.1721 148.293 84.0011 147.848 83.5001Z" fill="white"/>
<path d="M147.097 83.2217C138.698 86.9235 131.772 93.9654 129.047 102.844C126.071 112.447 128.491 122.439 134.721 130.204C137.724 133.934 141.757 137.024 146.68 137.302C147.208 137.33 147.208 136.495 146.68 136.467C142.286 136.216 138.642 133.517 135.861 130.26C132.857 126.725 130.437 122.383 129.353 117.874C127.128 108.828 129.881 99.1424 136.028 92.2397C139.226 88.6492 143.176 85.8659 147.57 83.9175C148.015 83.7227 147.598 83.0269 147.097 83.2217Z" fill="black"/>
<path d="M139.171 119.127C140.895 123.413 143.676 127.504 148.404 128.673C148.933 128.813 149.155 128.005 148.627 127.866C144.205 126.781 141.59 122.912 139.977 118.904C139.782 118.431 138.976 118.626 139.171 119.127Z" fill="black"/>
<path d="M148.571 128.618C150.24 128.507 151.575 127.672 153.133 127.171C154.162 126.837 155.914 126.475 156.108 127.894C156.359 129.62 154.162 129.982 152.91 130.121C152.382 130.177 152.382 131.012 152.91 130.956C154.162 130.817 155.552 130.622 156.414 129.62C157.082 128.813 157.304 127.56 156.581 126.725C154.662 124.499 150.713 127.644 148.571 127.783C148.043 127.839 148.043 128.674 148.571 128.618Z" fill="black"/>
<path d="M146.374 137.079C147.459 138.693 148.46 140.419 149.656 141.95C150.379 142.896 151.353 143.787 152.632 143.703C153.578 143.62 154.468 142.896 154.468 141.894C154.495 140.586 152.827 139.584 151.992 138.833C151.603 138.471 150.991 139.055 151.408 139.417C151.881 139.835 153.049 140.586 153.272 141.143C153.299 141.616 153.299 142.061 153.327 142.534C152.465 142.952 151.742 142.896 151.186 142.367C150.741 142.033 150.435 141.644 150.101 141.171C149.044 139.695 148.098 138.165 147.097 136.662C146.791 136.188 146.068 136.606 146.374 137.079Z" fill="black"/>
<path d="M152.771 130.9C154.356 131.485 156.025 131.401 157.666 131.679C157.944 131.707 158.222 131.763 158.5 131.846C158.639 132.264 158.778 132.681 158.89 133.099C158.778 133.6 157.221 133.739 156.887 133.739C155.83 133.767 154.801 133.433 153.8 133.155C153.271 133.015 153.077 133.795 153.577 133.962C155.191 134.435 159.891 135.493 160.058 132.542C160.113 131.512 159.112 131.123 158.278 130.956C156.526 130.594 154.69 130.733 152.993 130.121C152.493 129.926 152.27 130.733 152.771 130.9Z" fill="black"/>
<path d="M157.972 134.463C158.556 134.908 158.751 135.715 158.389 136.328C158.027 136.94 157.332 137.107 156.665 137.107C155.524 137.079 154.384 136.55 153.383 136.022C152.91 135.771 152.493 136.495 152.966 136.745C154.495 137.58 156.915 138.638 158.556 137.441C159.835 136.495 159.613 134.63 158.417 133.739C157.944 133.405 157.527 134.129 157.972 134.463Z" fill="black"/>
<path d="M156.804 137.886C157.082 138.833 156.442 139.807 155.497 140.057C154.467 140.336 153.438 139.807 152.66 139.195C152.242 138.861 151.658 139.445 152.076 139.779C153.188 140.67 154.662 141.31 156.081 140.725C157.277 140.224 158.028 138.916 157.638 137.664C157.471 137.135 156.665 137.358 156.804 137.886Z" fill="black"/>
<path opacity="0.11" d="M142.397 86.3947C140.784 88.7048 138.753 92.0448 137.057 96.359C134.303 103.373 133.914 109.274 133.831 111.417C133.58 117.568 133.441 121.159 135.583 125C138.308 129.898 143.176 132.32 149.267 135.326C152.382 136.857 155.052 137.859 156.859 138.443C156.859 138.61 156.859 139.807 155.997 140.447C155.052 141.115 153.411 140.865 152.382 139.584C153.717 140.447 154.328 141.616 153.995 142.312C153.717 142.952 152.632 143.286 151.742 143.063C150.017 142.59 150.184 140.169 147.626 137.831C147.042 137.302 146.513 136.94 146.124 136.717C144.483 136.55 141.674 135.994 138.893 134.101C138.392 133.767 136.501 132.403 133.914 128.507C132.273 126.029 130.243 122.94 129.047 118.292C128.657 116.789 126.766 108.773 130.41 100.116C130.771 99.2258 131.717 97.1662 133.386 94.7725C136.501 90.3748 140.088 87.7863 142.397 86.3947Z" fill="#3F3F3F"/>
<path d="M144.177 41.4438C141.118 43.6148 140.144 46.7043 138.253 52.7998C135.861 60.4818 134.137 66.0207 137.085 70.3348C140.005 74.5655 146.43 76.0685 153.077 74.983C153.494 75.15 154.078 75.4562 154.495 76.0128C155.052 76.7643 154.968 77.5158 155.135 78.7127C155.358 80.2992 155.524 81.6352 156.303 82.1918C157.583 83.1382 160.28 81.83 161.838 80.6332C164.258 78.7962 165.287 76.3468 165.704 75.3448C170.015 64.6847 172.156 59.3685 170.988 54.3307C170.654 52.9112 169.57 48.4857 165.704 44.7838C160.058 39.4398 150.184 37.1853 144.177 41.4438Z" fill="white"/>
<path d="M139.949 47.8177C136.556 54.943 137.78 65.464 143.621 71.0863C148.627 75.8737 157.082 75.4283 161.699 70.3627C162.06 69.973 161.476 69.3607 161.115 69.7782C156.665 74.649 148.543 74.9552 143.899 70.1957C138.614 64.796 137.474 54.943 140.645 48.263C140.895 47.762 140.172 47.3445 139.949 47.8177Z" fill="#161616"/>
<path d="M154.05 73.9531C154.023 76.8478 154.634 79.6311 155.83 82.2753C156.053 82.7763 156.776 82.331 156.553 81.8578C155.413 79.3528 154.857 76.7086 154.885 73.9531C154.885 73.4243 154.05 73.4243 154.05 73.9531Z" fill="#161616"/>
<path d="M155.802 82.4701C158.584 84.0844 162.116 81.6072 164.118 79.7424C164.508 79.3806 163.924 78.7961 163.534 79.1579C161.866 80.7166 158.584 83.1381 156.247 81.7742C155.747 81.4959 155.33 82.2196 155.802 82.4701Z" fill="#161616"/>
<path d="M144.511 62.2354C148.794 64.963 154.579 61.2334 156.693 57.3924C156.943 56.9192 156.22 56.5017 155.969 56.9749C154.078 60.4262 148.822 63.9889 144.928 61.5117C144.483 61.2334 144.066 61.957 144.511 62.2354Z" fill="#161616"/>
<path d="M154.968 56.6687C155.691 57.0305 156.248 57.615 156.47 58.3943C156.637 58.8953 157.444 58.7005 157.277 58.1717C156.971 57.1975 156.303 56.3903 155.385 55.945C154.913 55.7223 154.495 56.446 154.968 56.6687Z" fill="#161616"/>
<path d="M147.209 46.7321C146.179 49.6268 144.928 52.438 143.426 55.11C143.176 55.5831 143.871 56.0007 144.149 55.5275C145.679 52.772 146.958 49.9051 148.015 46.927C148.182 46.4538 147.375 46.2311 147.209 46.7321Z" fill="#161616"/>
<path d="M143.537 55.8615C144.399 57.0584 145.762 57.7542 147.236 57.6429C147.765 57.615 147.765 56.78 147.236 56.8079C146.068 56.8914 144.956 56.3904 144.26 55.4441C143.954 54.9987 143.231 55.4162 143.537 55.8615Z" fill="#161616"/>
<path d="M143.454 51.4917C143.37 50.8515 143.454 50.2114 143.704 49.6269C143.426 49.6269 143.176 49.6269 142.897 49.6269C143.12 50.3784 143.009 51.1299 142.592 51.7979C142.842 51.8257 143.092 51.8535 143.342 51.9092C143.231 51.3804 143.259 50.8515 143.426 50.3227C143.593 49.8217 142.786 49.599 142.619 50.1C142.397 50.768 142.369 51.436 142.536 52.1319C142.619 52.4937 143.12 52.5215 143.287 52.2432C143.815 51.4082 143.954 50.3784 143.676 49.432C143.565 49.0145 143.009 49.0702 142.87 49.432C142.564 50.1835 142.508 50.9629 142.619 51.7422C142.731 52.2432 143.509 52.0205 143.454 51.4917Z" fill="#161616"/>
<path d="M154.106 49.7381C153.828 49.0423 153.939 48.3186 154.467 47.8176C154.245 47.7619 153.995 47.7063 153.772 47.6228C153.967 48.4299 153.856 49.2093 153.438 49.9329C153.689 49.9608 153.939 49.9886 154.189 50.0443C154.078 49.5154 154.134 49.0423 154.301 48.5413C154.467 48.0403 153.661 47.8176 153.494 48.3186C153.272 48.9588 153.244 49.5989 153.383 50.2669C153.466 50.6288 153.967 50.6566 154.134 50.3783C154.662 49.4598 154.801 48.4299 154.551 47.4279C154.467 47.1218 154.078 47.0383 153.856 47.2331C153.132 47.9568 152.882 49.0423 153.272 49.9886C153.522 50.4618 154.328 50.2391 154.106 49.7381Z" fill="#161616"/>
<path d="M142.035 47.0661C142.508 46.0363 143.815 45.6745 144.705 46.3425C145.15 46.6486 145.568 45.925 145.123 45.6188C143.871 44.7003 141.924 45.2291 141.312 46.6486C141.09 47.1496 141.813 47.5671 142.035 47.0661Z" fill="#161616"/>
<path d="M140.088 53.7739C140.033 53.8296 139.977 53.8853 139.922 53.9409C139.755 54.1079 139.755 54.3584 139.922 54.5254C140.088 54.6924 140.339 54.6924 140.506 54.5254C140.561 54.4698 140.617 54.4141 140.672 54.3584C140.839 54.1914 140.839 53.9409 140.672 53.7739C140.506 53.6069 140.255 53.6069 140.088 53.7739Z" fill="#161616"/>
<path d="M142.536 53.6626C142.536 53.6348 142.536 53.6626 142.536 53.6626C142.536 53.7183 142.564 53.7739 142.592 53.8574C142.592 53.8574 142.592 53.8574 142.592 53.8296C142.564 53.9131 142.564 53.9688 142.536 54.0523C142.341 54.2749 142.147 54.2749 141.952 54.0523C141.924 53.9688 141.924 53.9131 141.896 53.8296C141.896 53.8296 141.896 53.8296 141.896 53.8574C141.924 53.7739 141.924 53.7183 141.952 53.6348C141.952 53.6348 141.952 53.6348 141.952 53.6626C141.868 53.8574 141.896 54.1079 142.091 54.2471C142.258 54.3584 142.564 54.3028 142.675 54.1079C142.758 53.9131 142.758 53.7183 142.619 53.5513C142.536 53.4678 142.397 53.4121 142.258 53.4121C142.119 53.4121 141.98 53.4678 141.896 53.5513C141.729 53.7183 141.757 53.9131 141.841 54.1079C141.924 54.3028 142.23 54.3584 142.425 54.2471C142.592 54.1079 142.619 53.8574 142.536 53.6626Z" fill="#161616"/>
<path d="M141.09 56.5851C141.118 56.5851 141.173 56.5851 141.201 56.5851C141.729 56.5851 141.729 55.7501 141.201 55.7501C141.173 55.7501 141.118 55.7501 141.09 55.7501C140.561 55.7501 140.561 56.5851 141.09 56.5851C141.118 56.5851 141.173 56.5851 141.201 56.5851C141.729 56.5851 141.729 55.7501 141.201 55.7501C141.173 55.7501 141.118 55.7501 141.09 55.7501C140.561 55.7501 140.561 56.5851 141.09 56.5851Z" fill="#161616"/>
<path d="M153.105 52.4658C153.105 52.4102 153.105 52.3545 153.077 52.2988C153.049 52.0762 152.91 51.8813 152.66 51.8813C152.465 51.8813 152.215 52.0762 152.243 52.2988C152.243 52.3545 152.243 52.4102 152.27 52.4658C152.298 52.6885 152.437 52.8833 152.688 52.8833C152.882 52.8833 153.133 52.7163 153.105 52.4658Z" fill="#161616"/>
<path d="M154.996 52.0205C155.052 52.0205 155.107 52.0205 155.163 52.0205C155.385 52.0205 155.58 51.8257 155.58 51.603C155.58 51.3804 155.385 51.1855 155.163 51.1855C155.107 51.1855 155.052 51.1855 154.996 51.1855C154.773 51.1855 154.579 51.3804 154.579 51.603C154.579 51.8257 154.746 52.0205 154.996 52.0205Z" fill="#161616"/>
<path d="M154.05 53.5235C154.05 53.5791 154.05 53.6348 154.05 53.6905C154.05 53.9131 154.245 54.108 154.468 54.108C154.69 54.108 154.885 53.9131 154.885 53.6905C154.885 53.6348 154.885 53.5791 154.885 53.5235C154.885 53.3008 154.69 53.106 154.468 53.106C154.245 53.1338 154.05 53.3008 154.05 53.5235Z" fill="#161616"/>
<path d="M152.326 45.3127C153.605 44.7003 155.135 44.8673 156.248 45.7858C156.665 46.1198 157.249 45.5353 156.832 45.2013C155.413 44.0323 153.55 43.8097 151.909 44.6168C151.408 44.8395 151.853 45.5632 152.326 45.3127Z" fill="#161616"/>
<path d="M164.675 49.6824C165.008 49.3484 165.342 49.0423 165.704 48.7083C165.926 48.7361 166.149 48.7639 166.371 48.7918C166.872 48.9031 167.261 49.1536 167.623 49.4598C168.429 50.1556 168.847 51.1576 168.93 52.2153C169.097 53.9688 168.402 56.3068 166.288 56.2511C165.759 56.2511 165.759 57.0861 166.288 57.0861C169.792 57.1696 170.488 52.5214 169.153 50.0721C168.485 48.8196 167.15 47.8454 165.676 47.8733C164.536 47.9011 163.368 48.6526 163.84 49.9051C164.063 50.3783 164.869 50.1834 164.675 49.6824Z" fill="#161616"/>
<path d="M145.289 37.2131C144.733 37.3523 142.758 37.8533 140.422 39.7181C135.388 43.7818 133.914 50.1835 133.441 52.2988C132.523 56.4738 133.497 56.613 132.44 60.0086C130.994 64.6847 128.936 65.13 127.35 69.2215C126.822 70.5575 124.513 76.5138 127.239 81.4403C130.02 86.4503 136.612 87.8976 141.173 87.4245C146.43 86.8956 152.437 83.4443 153.856 78.0725C154.245 76.6251 154.217 75.2891 154.106 74.315C152.799 74.3985 150.435 74.3985 147.765 73.3408C147.069 73.0625 144.455 71.9491 142.174 69.2215C140.228 66.9113 139.532 64.6568 139.032 63.0146C138.559 61.4003 137.502 57.7263 138.559 53.1338C139.532 48.9588 141.702 46.3146 142.147 45.7858C144.844 42.6128 148.015 41.3047 149.517 40.8037C150.852 42.5293 152.159 43.8096 153.133 44.6725C155.246 46.5373 157.499 48.5135 160.837 49.1537C162.088 49.4042 163.117 49.4042 163.785 49.3485C163.952 49.098 164.452 48.4578 165.342 48.2073C166.816 47.7898 168.068 48.9031 168.29 49.098C169.153 49.8495 169.375 50.7958 169.542 51.3803C169.653 51.7978 169.987 53.2173 169.319 54.7203C169.153 55.0822 168.902 55.611 168.374 56.0563C167.373 56.9191 166.121 56.8635 165.759 56.8356C164.73 57.949 163.312 59.786 162.227 62.3188C160.447 66.4938 160.67 70.1678 160.725 71.1698C160.92 73.6748 161.254 78.2951 164.953 81.3846C169.598 85.2813 175.8 83.5835 176.523 83.3886C183.698 81.329 186.035 74.0088 186.229 73.313C188.204 66.7165 184.783 60.9272 183.114 58.116C180.806 54.1915 179.666 54.6368 174.52 48.9031C166.983 40.4975 166.928 36.7678 162.45 35.07C160.058 34.1793 156.053 33.7061 149.628 37.074C148.683 36.9348 147.097 36.7956 145.289 37.2131Z" fill="#5222D0"/>
<path d="M154.607 74.8159C156.248 74.6211 157.972 73.4799 159.279 72.5058C159.696 72.1996 159.279 71.4759 158.862 71.7821C158.25 72.2553 157.583 72.6449 156.887 73.0068C156.164 73.3964 155.413 73.8696 154.579 73.9809C154.078 74.0366 154.078 74.8716 154.607 74.8159Z" fill="#161616"/>
<path d="M154.857 75.1779C155.914 75.0109 156.859 74.3985 157.777 73.8697C158.667 73.3409 159.474 72.7564 160.197 72.0049C160.558 71.6152 159.974 71.0307 159.613 71.4204C158.417 72.7007 156.387 74.0924 154.634 74.3985C154.106 74.482 154.328 75.2892 154.857 75.1779Z" fill="#161616"/>
<path opacity="0.25" d="M172.101 46.6487C173.742 49.4042 175.939 53.5792 177.691 59.0345C179.833 65.6867 181.112 69.5555 178.998 72.5893C176.912 75.5953 172.156 76.7922 168.179 75.4562C164.202 74.1202 161.393 70.4183 161.142 66.0763C160.781 67.6628 160.392 70.3627 161.003 73.6192C161.421 75.7623 161.949 78.49 164.257 80.7724C167.011 83.5 170.515 83.7783 171.795 83.8897C173.102 84.001 176.551 84.0845 179.999 81.9413C183.42 79.826 184.783 76.7922 185.339 75.5675C186.869 72.1162 186.647 69.0545 186.507 67.4958C186.146 63.0982 184.255 60.0365 183.393 58.6448C183.031 58.0603 182.197 56.78 178.192 52.6607C175.716 50.0722 173.602 48.0125 172.101 46.6487Z" fill="#3F3F3F"/>
<path opacity="0.15" d="M127.851 68.3865C127.517 69.5276 127.017 71.977 127.99 74.649C129.575 79.0188 134.526 82.164 139.588 81.4125C143.732 80.8001 147.208 77.6828 148.432 73.4521C150.379 73.7026 152.326 73.981 154.301 74.2315C154.356 75.1778 154.301 76.6251 153.772 78.2673C152.827 81.2733 150.935 83.0268 150.129 83.7505C146.43 87.0626 141.98 87.3132 140.228 87.3967C137.919 87.508 134.164 87.7306 130.716 85.17C127.823 83.0546 126.738 80.1878 126.433 79.1858C124.653 73.7861 127.406 69.138 127.851 68.3865Z" fill="#3F3F3F"/>
<path opacity="0.15" d="M162.478 56.8078C161.421 60.5931 160.002 65.6866 156.748 68.6648C155.358 69.9451 152.048 72.2553 145.15 71.7821C145.985 72.3666 147.848 73.4799 150.49 73.7304C153.133 73.9809 155.163 73.2294 156.081 72.8119C157.11 75.9014 158.167 78.9909 159.196 82.0526C160.67 81.2176 162.144 80.4104 163.618 79.5754C162.617 78.0168 160.725 74.5933 160.614 69.9451C160.447 62.3188 165.203 57.2809 166.204 56.2789C166.594 56.2233 167.957 55.9171 168.819 54.7203C169.959 53.1059 169.486 50.7679 168.179 49.5154C167.929 49.2649 166.816 48.2073 165.704 48.4856C163.924 48.8753 163.701 52.3544 162.478 56.8078Z" fill="#3F3F3F"/>
</svg>
